<?xml version="1.0" encoding="utf-8"?>
<!-- Generator: Adobe Illustrator 23.0.3, SVG Export Plug-In . SVG Version: 6.00 Build 0)  -->
<svg version="1.1" xmlns="http://www.w3.org/2000/svg" xmlns:xlink="http://www.w3.org/1999/xlink" x="0px" y="0px"
	 viewBox="0 0 750 750" style="enable-background:new 0 0 750 750;" xml:space="preserve">
<style type="text/css">
	.st0{fill:#4D94FF;}
	.st1{fill:#FFFFFF;}
</style>
<g id="Layer_2">
	<rect class="st0" width="750" height="750"/>
</g>
<g id="Layer_1">
	<g>
		<path class="st0" d="M750.22,562.66c0,103.58-83.97,187.55-187.55,187.55H187.55C83.97,750.22,0,666.25,0,562.66V187.55
			C0,83.97,83.97,0,187.55,0h375.11c103.58,0,187.55,83.97,187.55,187.55V562.66z"/>
		<path class="st1" d="M484.2,750.19H351.09V427.96h-66.53V316.92h66.53v-66.67c0-90.6,37.55-144.45,144.26-144.45h88.84v111.06
			h-55.54c-41.54,0-44.28,15.51-44.28,44.48l-0.18,55.59h100.61l-11.77,111.04H484.2V750.19z"/>
	</g>
</g>
</svg>
