<?xml version="1.0" encoding="utf-8"?>
<!-- Generator: Adobe Illustrator 23.0.3, SVG Export Plug-In . SVG Version: 6.00 Build 0)  -->
<svg version="1.1" xmlns="http://www.w3.org/2000/svg" xmlns:xlink="http://www.w3.org/1999/xlink" x="0px" y="0px"
	 viewBox="0 0 750 750" style="enable-background:new 0 0 750 750;" xml:space="preserve">
<style type="text/css">
	.st0{display:none;}
	.st1{display:inline;fill:#314768;}
	.st2{fill:#FFFFFF;}
	.st3{fill-rule:evenodd;clip-rule:evenodd;fill:#FFFFFF;}
</style>
<g id="Layer_1" class="st0">
	<rect class="st1" width="750" height="750"/>
</g>
<g id="family">
	<g id="user_1_">
		<circle class="st2" cx="128.89" cy="113.31" r="73.25"/>
		<path class="st2" d="M196.14,490.13H61.64V218.02c0-5.52,4.48-10,10-10h114.5c5.52,0,10,4.48,10,10V490.13z"/>
		<path class="st2" d="M100.81,766.95H75.98c-8,0-14.49-6.49-14.49-14.49V484.85h53.8v267.62
			C115.29,760.47,108.81,766.95,100.81,766.95z"/>
		<path class="st2" d="M181.65,766.95h-24.83c-8,0-14.49-6.49-14.49-14.49V484.85h53.8v267.62
			C196.14,760.47,189.65,766.95,181.65,766.95z"/>
		<path class="st2" d="M45.25,433.18l-24.03-6.24c-7.74-2.01-12.39-9.92-10.38-17.66l49.48-190.39c2.01-7.74,9.92-12.39,17.66-10.38
			l24.03,6.24c7.74,2.01,12.39,9.92,10.38,17.66L62.92,422.8C60.9,430.55,53,435.19,45.25,433.18z"/>
		<path class="st2" d="M230.05,429.47l-24.35,4.81c-7.85,1.55-15.47-3.56-17.02-11.41l-38.11-192.98
			c-1.55-7.85,3.56-15.47,11.41-17.02l24.35-4.81c7.85-1.55,15.47,3.56,17.02,11.41l38.11,192.98
			C243,420.3,237.9,427.92,230.05,429.47z"/>
	</g>
	<g id="user_2_">
		<circle class="st2" cx="308" cy="118.34" r="73.25"/>
		<path class="st2" d="M396.38,485.1h-134.5V212.99c0-5.52,4.48-10,10-10h114.5c5.52,0,10,4.48,10,10V485.1z"/>
		<path class="st2" d="M301.05,761.92h-24.83c-8,0-14.49-6.49-14.49-14.49V479.81h53.8v267.62
			C315.54,755.43,309.05,761.92,301.05,761.92z"/>
		<path class="st2" d="M381.89,761.92h-24.83c-8,0-14.49-6.49-14.49-14.49V479.81h53.8v267.62
			C396.38,755.43,389.89,761.92,381.89,761.92z"/>
		<path class="st2" d="M224.54,424l-23.3-8.56c-7.51-2.76-11.36-11.08-8.6-18.59l67.85-184.64c2.76-7.51,11.08-11.36,18.59-8.6
			l23.3,8.56c7.51,2.76,11.36,11.08,8.6,18.59L243.13,415.4C240.37,422.91,232.04,426.76,224.54,424z"/>
		<path class="st2" d="M450.9,40.28l22.59,10.3c7.28,3.32,10.49,11.91,7.17,19.19l-81.63,178.98c-3.32,7.28-11.91,10.49-19.19,7.17
			l-22.59-10.3c-7.28-3.32-10.49-11.91-7.17-19.19l81.63-178.98C435.03,40.17,443.62,36.96,450.9,40.28z"/>
	</g>
	<g>
		<g id="user_4_">
			<circle class="st2" cx="490.38" cy="343.31" r="48.35"/>
			<path class="st2" d="M534.76,592.01h-88.77V415.82c0-5.52,4.48-10,10-10h68.77c5.52,0,10,4.48,10,10V592.01z"/>
			<path class="st2" d="M466.92,774.71h-6.53c-8,0-14.49-6.49-14.49-14.49v-171.7h35.51v171.7
				C481.41,768.22,474.92,774.71,466.92,774.71z"/>
			<path class="st2" d="M520.27,774.71h-6.53c-8,0-14.49-6.49-14.49-14.49v-171.7h35.51v171.7
				C534.76,768.22,528.27,774.71,520.27,774.71z"/>
			<path class="st2" d="M416.06,549.98l-6.13-2.25c-7.51-2.76-11.36-11.08-8.6-18.59l41.38-112.62c2.76-7.51,11.08-11.36,18.59-8.6
				l6.13,2.25c7.51,2.76,11.36,11.08,8.6,18.59l-41.38,112.62C431.89,548.89,423.57,552.74,416.06,549.98z"/>
			<path class="st2" d="M592.67,538.71l-5.66,3.27c-6.93,4-15.79,1.63-19.79-5.3l-59.99-103.9c-4-6.93-1.63-15.79,5.3-19.79
				l5.66-3.27c6.93-4,15.79-1.63,19.79,5.3l59.99,103.9C601.98,525.85,599.6,534.71,592.67,538.71z"/>
		</g>
		<g id="user_3_">
			<circle class="st2" cx="630.67" cy="346" r="48.35"/>
			<path class="st2" d="M701.46,589.35h-88.77V413.16c0-5.52,4.48-10,10-10h68.77c5.52,0,10,4.48,10,10V589.35z"/>
			<path class="st2" d="M633.61,772.05h-6.53c-8,0-14.49-6.49-14.49-14.49v-171.7h35.51v171.7
				C648.1,765.57,641.61,772.05,633.61,772.05z"/>
			<path class="st2" d="M686.97,772.05h-6.53c-8,0-14.49-6.49-14.49-14.49v-171.7h35.51v171.7
				C701.46,765.57,694.97,772.05,686.97,772.05z"/>
			<path class="st2" d="M583.42,547.33l-6.13-2.25c-7.51-2.76-11.36-11.08-8.6-18.59l41.38-112.62c2.76-7.51,11.08-11.36,18.59-8.6
				l6.13,2.25c7.51,2.76,11.36,11.08,8.6,18.59l-41.38,112.62C599.25,546.24,590.92,550.09,583.42,547.33z"/>
			<path class="st2" d="M715.47,294.03l6.32,1.64c7.74,2.01,12.39,9.92,10.38,17.66l-30.18,116.12
				c-2.01,7.74-9.92,12.39-17.66,10.38l-6.32-1.64c-7.74-2.01-12.39-9.92-10.38-17.66l30.18-116.12
				C699.82,296.66,707.73,292.02,715.47,294.03z"/>
		</g>
	</g>
</g>
<g id="stars">
</g>
<g id="wheelchair-symbol">
</g>
</svg>
