<?xml version="1.0" encoding="utf-8"?>
<!-- Generator: Adobe Illustrator 23.0.3, SVG Export Plug-In . SVG Version: 6.00 Build 0)  -->
<svg version="1.1" xmlns="http://www.w3.org/2000/svg" xmlns:xlink="http://www.w3.org/1999/xlink" x="0px" y="0px"
	 viewBox="0 0 750 750" style="enable-background:new 0 0 750 750;" xml:space="preserve">
<style type="text/css">
	.st0{fill:#4D94FF;}
	.st1{fill:#FFFFFF;}
</style>
<g id="Layer_2">
	<rect class="st0" width="750" height="750"/>
</g>
<g id="Layer_1">
	<g>
		<path class="st0" d="M750.22,562.95c0,103.58-83.97,187.55-187.55,187.55H187.55C83.97,750.5,0,666.53,0,562.95V187.84
			C0,84.25,83.97,0.28,187.55,0.28h375.11c103.58,0,187.55,83.97,187.55,187.55V562.95z"/>
		<g>
			<path class="st1" d="M495.03,655.3H251.96c-86.93,0-157.65-70.72-157.65-157.66V254.57c0-86.93,70.72-157.66,157.65-157.66
				h243.07c86.93,0,157.66,70.73,157.66,157.66v243.07C652.69,584.58,581.97,655.3,495.03,655.3z M251.96,150.46
				c-57.41,0-104.11,46.7-104.11,104.11v243.07c0,57.41,46.7,104.11,104.11,104.11h243.07c57.41,0,104.12-46.7,104.12-104.11V254.57
				c0-57.41-46.71-104.11-104.12-104.11H251.96z"/>
			<path class="st1" d="M373.5,524.49c-81.19,0-147.24-66.05-147.24-147.24c0-81.2,66.05-147.26,147.24-147.26
				c81.19,0,147.25,66.06,147.25,147.26C520.74,458.44,454.69,524.49,373.5,524.49z M373.5,283.54c-51.66,0-93.69,42.04-93.69,93.71
				c0,51.66,42.03,93.69,93.69,93.69c51.67,0,93.71-42.03,93.71-93.69C467.2,325.58,425.17,283.54,373.5,283.54z"/>
			<path class="st1" d="M555.42,228.79c0,18.22-14.77,32.98-32.99,32.98c-18.22,0-32.98-14.76-32.98-32.98
				c0-18.21,14.76-32.99,32.98-32.99C540.65,195.8,555.42,210.58,555.42,228.79z"/>
		</g>
	</g>
</g>
</svg>
