<?xml version="1.0" encoding="utf-8"?>
<!-- Generator: Adobe Illustrator 23.0.3, SVG Export Plug-In . SVG Version: 6.00 Build 0)  -->
<svg version="1.1" xmlns="http://www.w3.org/2000/svg" xmlns:xlink="http://www.w3.org/1999/xlink" x="0px" y="0px"
	 viewBox="0 0 750 750" style="enable-background:new 0 0 750 750;" xml:space="preserve">
<style type="text/css">
	.st0{display:none;}
	.st1{display:inline;fill:#314768;}
	.st2{fill:#FFFFFF;}
	.st3{fill-rule:evenodd;clip-rule:evenodd;fill:#FFFFFF;}
	.st4{fill:#4D94FF;}
	.st5{opacity:0.9;}
</style>
<g id="Layer_1" class="st0">
</g>
<g id="family">
</g>
<g id="stars">
</g>
<g id="wheelchair-symbol">
</g>
<g id="winter-world-logo">
	<rect class="st4" width="750" height="750"/>
	<g id="Layer_6">
		<g class="st5">
			<polygon class="st2" points="215.25,665.47 154.93,556.19 247.4,607.23 267.18,571.4 255.05,583.53 233.12,543.8 211.2,504.08 
				250.92,526.01 282.59,543.49 286.63,536.16 374.34,377.26 320.38,407.05 332.64,413.82 314.84,431.62 297.05,449.41 
				284.57,426.81 258.85,441.01 285.1,488.57 228.89,457.55 215.44,464.97 56.54,552.68 73.68,569.82 98.84,544.66 160.84,656.98 
				198.92,695.06 			"/>
			<polygon class="st2" points="534.94,88.09 595.26,197.37 502.8,146.33 483.02,182.16 495.15,170.03 517.07,209.76 539,249.48 
				499.28,227.56 467.61,210.08 463.57,217.4 375.86,376.3 429.82,346.51 417.56,339.74 435.35,321.95 453.15,304.15 465.63,326.75 
				491.35,312.55 465.1,264.99 521.31,296.02 534.76,288.59 693.66,200.88 676.52,183.74 651.36,208.9 589.36,96.58 551.28,58.5 			
				"/>
			<polygon class="st2" points="86.41,216.94 195.69,156.62 144.65,249.08 180.48,268.86 168.35,256.73 208.08,234.81 247.8,212.88 
				225.87,252.6 208.39,284.27 215.72,288.31 374.62,376.02 344.83,322.06 338.06,334.32 320.26,316.53 302.46,298.73 
				325.07,286.25 310.87,260.53 263.31,286.78 294.33,230.57 286.91,217.12 199.2,58.22 182.06,75.36 207.22,100.52 94.9,162.52 
				56.82,200.6 			"/>
			<polygon class="st2" points="663.79,536.63 554.51,596.95 605.55,504.48 569.72,484.7 581.85,496.83 542.12,518.76 502.4,540.68 
				524.32,500.96 541.8,469.29 534.48,465.25 375.58,377.54 405.37,431.5 412.14,419.24 429.93,437.04 447.73,454.83 425.13,467.31 
				439.33,493.03 486.89,466.78 455.86,522.99 463.29,536.44 551,695.34 568.14,678.2 542.98,653.04 655.3,591.04 693.38,552.96 			
				"/>
			<polygon class="st2" points="420.65,535.36 360.69,518.05 411.43,503.41 405.75,483.74 405.75,492.32 383.95,486.03 
				362.16,479.74 383.95,473.44 401.33,468.43 400.17,464.41 375,377.22 366.45,406.83 373.18,404.89 373.18,417.47 373.18,430.06 
				360.78,426.48 356.71,440.59 382.8,448.12 351.96,457.03 349.83,464.41 324.66,551.6 336.78,551.6 336.78,533.81 398.41,551.6 
				425.34,551.6 			"/>
			<polygon class="st2" points="329.35,566.86 389.31,584.17 338.57,598.81 344.25,618.47 344.25,609.9 366.05,616.19 
				387.84,622.48 366.05,628.78 348.67,633.79 349.83,637.81 375,725 383.55,695.39 376.82,697.33 376.82,684.75 376.82,672.16 
				389.22,675.74 393.29,661.63 367.2,654.09 398.04,645.19 400.17,637.81 425.34,550.62 413.22,550.62 413.22,568.41 
				351.59,550.62 324.66,550.62 			"/>
			<polygon class="st2" points="214.64,420.65 231.95,360.69 246.59,411.43 266.26,405.75 257.68,405.75 263.97,383.95 
				270.26,362.16 276.56,383.95 281.57,401.33 285.59,400.17 372.78,375 343.17,366.45 345.11,373.18 332.53,373.18 319.94,373.18 
				323.52,360.78 309.41,356.71 301.88,382.8 292.97,351.96 285.59,349.83 198.4,324.66 198.4,336.78 216.19,336.78 198.4,398.41 
				198.4,425.34 			"/>
			<polygon class="st2" points="183.14,329.35 165.83,389.31 151.19,338.57 131.53,344.25 140.1,344.25 133.81,366.05 
				127.52,387.84 121.22,366.05 116.21,348.67 112.19,349.83 25,375 54.61,383.55 52.67,376.82 65.25,376.82 77.84,376.82 
				74.26,389.22 88.37,393.29 95.91,367.2 104.81,398.04 112.19,400.17 199.38,425.34 199.38,413.22 181.59,413.22 199.38,351.59 
				199.38,324.66 			"/>
			<polygon class="st2" points="329.35,214.64 389.31,231.95 338.57,246.59 344.25,266.26 344.25,257.68 366.05,263.97 
				387.84,270.26 366.05,276.56 348.67,281.57 349.83,285.59 375,372.78 383.55,343.17 376.82,345.11 376.82,332.53 376.82,319.94 
				389.22,323.52 393.29,309.41 367.2,301.88 398.04,292.97 400.17,285.59 425.34,198.4 413.22,198.4 413.22,216.19 351.59,198.4 
				324.66,198.4 			"/>
			<polygon class="st2" points="420.65,183.14 360.69,165.83 411.43,151.19 405.75,131.53 405.75,140.1 383.95,133.81 
				362.16,127.52 383.95,121.22 401.33,116.21 400.17,112.19 375,25 366.45,54.61 373.18,52.67 373.18,65.25 373.18,77.84 
				360.78,74.26 356.71,88.37 382.8,95.91 351.96,104.81 349.83,112.19 324.66,199.38 336.78,199.38 336.78,181.59 398.41,199.38 
				425.34,199.38 			"/>
			<polygon class="st2" points="535.36,329.35 518.05,389.31 503.41,338.57 483.74,344.25 492.32,344.25 486.03,366.05 
				479.74,387.84 473.44,366.05 468.43,348.67 464.41,349.83 377.22,375 406.83,383.55 404.89,376.82 417.47,376.82 430.06,376.82 
				426.48,389.22 440.59,393.29 448.12,367.2 457.03,398.04 464.41,400.17 551.6,425.34 551.6,413.22 533.81,413.22 551.6,351.59 
				551.6,324.66 			"/>
			<polygon class="st2" points="566.86,420.65 584.17,360.69 598.81,411.43 618.47,405.75 609.9,405.75 616.19,383.95 
				622.48,362.16 628.78,383.95 633.79,401.33 637.81,400.17 725,375 695.39,366.45 697.33,373.18 684.75,373.18 672.16,373.18 
				675.74,360.78 661.63,356.71 654.09,382.8 645.19,351.96 637.81,349.83 550.62,324.66 550.62,336.78 568.41,336.78 
				550.62,398.41 550.62,425.34 			"/>
		</g>
	</g>
</g>
</svg>
