<?xml version="1.0" encoding="utf-8"?>
<!-- Generator: Adobe Illustrator 23.0.3, SVG Export Plug-In . SVG Version: 6.00 Build 0)  -->
<svg version="1.1" xmlns="http://www.w3.org/2000/svg" xmlns:xlink="http://www.w3.org/1999/xlink" x="0px" y="0px"
	 viewBox="0 0 800 200" style="enable-background:new 0 0 800 200;" xml:space="preserve">
<style type="text/css">
	.st0{fill:#3D7DD8;}
	.st1{display:none;}
	.st2{display:inline;}
	.st3{fill:#FFFFFF;}
	.st4{opacity:0.8;}
	.st5{opacity:0.55;}
	.st6{opacity:0.19;}
	.st7{opacity:0.33;}
</style>
<g id="Layer_1">
	<rect class="st0" width="800" height="200"/>
</g>
<g id="snowflake_ideas" class="st1">
	<g class="st2">
		<g>
			<g>
				<polygon class="st3" points="188.2,-241 201.85,-283 168.43,-283 144.18,-241 				"/>
				<polygon class="st3" points="231.8,-241 275.82,-241 251.57,-283 218.15,-283 				"/>
				<polygon class="st3" points="174.73,-199.54 136.35,-227.43 126.86,-211 159.88,-153.82 				"/>
				<polygon class="st3" points="210,-173.92 166.51,-142.32 168.43,-139 251.57,-139 253.49,-142.32 				"/>
				<polygon class="st3" points="245.27,-199.54 260.12,-153.82 293.14,-211 283.65,-227.43 				"/>
			</g>
			<g>
				<polygon class="st3" points="213.83,-235.17 239.8,-248.41 224.2,-264 193.28,-255.72 				"/>
				<polygon class="st3" points="234.17,-214.83 254.72,-194.28 263,-225.2 247.41,-240.8 				"/>
				<polygon class="st3" points="188.19,-222.11 183.29,-253.04 171.2,-249.8 159.92,-207.71 				"/>
				<polygon class="st3" points="192.69,-193.69 157.65,-199.24 157,-196.8 195.8,-158 198.24,-158.65 				"/>
				<polygon class="st3" points="221.11,-189.19 206.71,-160.92 248.8,-172.2 252.04,-184.29 				"/>
			</g>
		</g>
		<g>
			<g>
				<polygon class="st3" points="213.83,-235.17 239.8,-248.41 224.2,-264 193.28,-255.72 				"/>
				<polygon class="st3" points="234.17,-214.83 254.72,-194.28 263,-225.2 247.41,-240.8 				"/>
				<polygon class="st3" points="188.19,-222.11 183.29,-253.04 171.2,-249.8 159.92,-207.71 				"/>
				<polygon class="st3" points="192.69,-193.69 157.65,-199.24 157,-196.8 195.8,-158 198.24,-158.65 				"/>
				<polygon class="st3" points="221.11,-189.19 206.71,-160.92 248.8,-172.2 252.04,-184.29 				"/>
			</g>
			<g>
				<polygon class="st3" points="223.07,-220.49 241.36,-214.55 241.36,-229.11 223.07,-239.67 				"/>
				<polygon class="st3" points="223.07,-201.51 223.07,-182.33 241.36,-192.89 241.36,-207.45 				"/>
				<polygon class="st3" points="205.01,-226.36 217.16,-243.08 210,-247.22 185.09,-232.83 				"/>
				<polygon class="st3" points="193.85,-211 180.08,-229.94 178.64,-229.11 178.64,-192.89 180.08,-192.06 				"/>
				<polygon class="st3" points="205.01,-195.64 185.09,-189.17 210,-174.78 217.16,-178.92 				"/>
			</g>
		</g>
	</g>
	<g class="st2">
		<g>
			<g>
				<polygon class="st3" points="213.83,-235.17 239.8,-248.41 224.2,-264 193.28,-255.72 				"/>
				<polygon class="st3" points="234.17,-214.83 254.72,-194.28 263,-225.2 247.41,-240.8 				"/>
				<polygon class="st3" points="188.19,-222.11 183.29,-253.04 171.2,-249.8 159.92,-207.71 				"/>
				<polygon class="st3" points="192.69,-193.69 157.65,-199.24 157,-196.8 195.8,-158 198.24,-158.65 				"/>
				<polygon class="st3" points="221.11,-189.19 206.71,-160.92 248.8,-172.2 252.04,-184.29 				"/>
			</g>
			<g>
				<polygon class="st3" points="223.07,-220.49 241.36,-214.55 241.36,-229.11 223.07,-239.67 				"/>
				<polygon class="st3" points="223.07,-201.51 223.07,-182.33 241.36,-192.89 241.36,-207.45 				"/>
				<polygon class="st3" points="205.01,-226.36 217.16,-243.08 210,-247.22 185.09,-232.83 				"/>
				<polygon class="st3" points="193.85,-211 180.08,-229.94 178.64,-229.11 178.64,-192.89 180.08,-192.06 				"/>
				<polygon class="st3" points="205.01,-195.64 185.09,-189.17 210,-174.78 217.16,-178.92 				"/>
			</g>
		</g>
		<g>
			<g>
				<polygon class="st3" points="223.07,-220.49 241.36,-214.55 241.36,-229.11 223.07,-239.67 				"/>
				<polygon class="st3" points="223.07,-201.51 223.07,-182.33 241.36,-192.89 241.36,-207.45 				"/>
				<polygon class="st3" points="205.01,-226.36 217.16,-243.08 210,-247.22 185.09,-232.83 				"/>
				<polygon class="st3" points="193.85,-211 180.08,-229.94 178.64,-229.11 178.64,-192.89 180.08,-192.06 				"/>
				<polygon class="st3" points="205.01,-195.64 185.09,-189.17 210,-174.78 217.16,-178.92 				"/>
			</g>
			<g>
				<polygon class="st3" points="220.53,-209.33 226.29,-198.02 233.09,-204.81 229.48,-218.28 				"/>
				<polygon class="st3" points="211.67,-200.47 202.72,-191.52 216.19,-187.91 222.98,-194.71 				"/>
				<polygon class="st3" points="214.84,-220.5 228.31,-222.63 226.9,-227.9 208.56,-232.81 				"/>
				<polygon class="st3" points="202.46,-218.54 204.88,-233.8 203.81,-234.09 186.91,-217.19 187.2,-216.12 				"/>
				<polygon class="st3" points="200.5,-206.16 188.19,-212.44 193.1,-194.1 198.37,-192.69 				"/>
			</g>
		</g>
	</g>
	<g class="st2">
		<polygon class="st3" points="501.29,-200.04 503.2,-188 506.2,-188 519.85,-230 509.85,-230 500,-199.69 		"/>
		<polygon class="st3" points="593.82,-188 569.57,-230 559.57,-230 583.82,-188 		"/>
		<polygon class="st3" points="491.48,-143.74 491.81,-143.69 492.09,-144.58 		"/>
		<polygon class="st3" points="574.52,-111.9 578.12,-100.82 611.14,-158 601.65,-174.43 594.61,-169.31 601.14,-158 		"/>
		<polygon class="st3" points="561.49,-89.32 559.57,-86 569.57,-86 571.49,-89.32 540.18,-112.07 532.88,-110.11 		"/>
		<polygon class="st3" points="553.27,-146.54 559.36,-150.97 559.36,-154.45 551.01,-151.74 549.36,-150.09 549.36,-139.89 
			542.13,-135.72 549.98,-134.47 556.05,-137.98 		"/>
		<polygon class="st3" points="480.02,-155.78 486.64,-159.15 486.64,-176.11 488.08,-176.94 496.64,-165.17 496.64,-176.11 
			498.08,-176.94 504.43,-168.21 506.19,-169.11 505.11,-175.93 493.09,-179.83 503.54,-185.87 503.2,-188 496.2,-188 500,-199.69 
			489.2,-196.8 478.5,-156.88 		"/>
		<polygon class="st3" points="514.26,-118.2 513.26,-124.52 493.09,-136.17 508.23,-141.08 500.45,-142.32 498.08,-139.06 
			496.64,-139.89 496.64,-142.92 491.81,-143.69 487.71,-131.09 506.35,-112.45 		"/>
		<polygon class="st3" points="557.58,-133.27 549.98,-134.47 541.07,-129.33 541.07,-129.33 541.07,-135.1 537.51,-133.05 
			534.4,-126.95 535.16,-125.92 533.34,-124.87 530.43,-119.15 540.18,-112.07 562.52,-118.05 		"/>
		<polygon class="st3" points="549.36,-164.8 553.07,-163.59 559.36,-175.94 559.36,-176.11 541.07,-186.67 541.07,-186.67 
			541.07,-180.9 549.36,-176.11 		"/>
		<polygon class="st3" points="522.88,-180.8 521.76,-173.77 523.01,-173.36 527.03,-178.9 526.56,-179.81 527.51,-179.56 
			530.43,-183.57 524.64,-189.37 514.92,-175.99 516.28,-175.55 521.81,-181.09 		"/>
		<polygon class="st3" points="530.43,-183.57 531.07,-182.93 531.07,-184.46 		"/>
		<polygon class="st3" points="506.19,-159.44 511.08,-156.94 511.85,-158 507.82,-163.54 505.2,-163.12 504.91,-164.19 
			506.33,-165.6 504.43,-168.21 497.13,-164.49 501.85,-158 496.64,-150.83 496.64,-142.92 500.45,-142.32 507.99,-152.69 		"/>
		<polygon class="st3" points="551.09,-151.81 548.39,-161.86 545.12,-162.93 538.53,-156.33 540.89,-151.7 549.36,-154.45 
			549.36,-151.2 551.01,-151.74 		"/>
		<polygon class="st3" points="523.78,-141.58 527.28,-136.76 531.07,-135.75 531.07,-146.76 529.67,-147.47 		"/>
		<polygon class="st3" points="527.51,-179.56 527.03,-178.9 531.07,-170.98 531.07,-178.61 		"/>
		<polygon class="st3" points="520.46,-165.54 521.76,-173.77 516.28,-175.55 506.33,-165.6 507.82,-163.54 		"/>
		<polygon class="st3" points="518.5,-153.16 511.08,-156.94 507.99,-152.69 510.87,-141.94 513.01,-142.64 514.86,-140.09 
			515.03,-140.05 516.5,-140.52 		"/>
		<polygon class="st3" points="486.43,-230 476.43,-230 452.18,-188 462.18,-188 		"/>
		<polygon class="st3" points="549.8,-188 548.87,-190.86 543.27,-188 		"/>
		<polygon class="st3" points="542.2,-211 542.38,-210.82 536.15,-230 526.15,-230 533.11,-208.57 		"/>
		<polygon class="st3" points="451.39,-169.31 444.35,-174.43 434.86,-158 467.88,-100.82 471.48,-111.9 444.86,-158 		"/>
		<polygon class="st3" points="475,-143.8 480.16,-138.63 482.29,-145.19 475.65,-146.24 		"/>
		<polygon class="st3" points="518,-120.92 514.26,-118.2 515.29,-111.68 523,-117.29 		"/>
		<polygon class="st3" points="474.51,-89.32 476.43,-86 486.43,-86 484.51,-89.32 510.55,-108.24 506.35,-112.45 		"/>
		<polygon class="st3" points="510.55,-108.24 513.8,-105 516.24,-105.65 515.29,-111.68 		"/>
		<polygon class="st3" points="563.27,-146.54 565.7,-148.31 561.49,-152.51 559.36,-150.97 559.36,-139.89 556.05,-137.98 
			557.58,-133.27 568.12,-131.6 		"/>
		<polygon class="st3" points="594.61,-169.31 591.65,-174.43 579.17,-165.36 576.75,-156.34 		"/>
		<polygon class="st3" points="569.22,-128.23 566.8,-119.2 562.52,-118.05 568.12,-100.82 574.52,-111.9 		"/>
		<polygon class="st3" points="576.75,-156.34 565.7,-148.31 572.72,-141.28 		"/>
		<polygon class="st3" points="569.22,-128.23 570.04,-131.29 568.12,-131.6 		"/>
		<polygon class="st3" points="523,-191.33 528,-194.22 535.16,-190.08 532.2,-186.02 535.56,-184.08 543.27,-188 539.8,-188 
			533.11,-208.57 511.28,-202.72 522.23,-191.78 		"/>
		<polygon class="st3" points="548.87,-190.86 557.8,-195.41 542.38,-210.82 		"/>
		<polygon class="st3" points="559.36,-161.55 553.07,-163.59 552.17,-161.83 561.49,-152.51 579.17,-165.36 581,-172.2 
			565.41,-187.8 559.36,-175.94 		"/>
		<polygon class="st3" points="482.73,-146.54 482.29,-145.19 486.64,-144.5 486.64,-150.97 480.02,-155.78 477.92,-154.71 
			478.5,-156.88 454.35,-174.43 451.39,-169.31 		"/>
		<polygon class="st3" points="471.48,-111.9 477.88,-100.82 487.71,-131.09 480.16,-138.63 		"/>
		<polygon class="st3" points="528,-120.92 523,-117.29 527.73,-113.85 530.43,-119.15 		"/>
		<polygon class="st3" points="531.07,-129.33 531.07,-131.54 527.28,-136.76 520.72,-138.52 523.78,-141.58 523.01,-142.64 
			516.5,-140.52 516.37,-139.69 515.03,-140.05 514.92,-140.01 525.16,-125.92 523,-124.67 528,-121.78 533.34,-124.87 
			534.4,-126.95 532.2,-129.98 		"/>
		<polygon class="st3" points="527.73,-113.85 524.71,-107.92 532.88,-110.11 		"/>
		<polygon class="st3" points="531.07,-170.98 531.07,-167.49 545.12,-162.93 547.48,-165.28 548.39,-161.86 549.36,-161.55 
			549.36,-164.8 541.07,-167.49 541.07,-168.8 532.84,-167.5 		"/>
		<polygon class="st3" points="531.07,-182.93 531.07,-178.61 541.07,-175.93 541.07,-180.9 535.56,-184.08 531.83,-182.17 		"/>
		<polygon class="st3" points="531.07,-184.46 532.2,-186.02 531.07,-186.67 		"/>
		<polygon class="st3" points="546.31,-169.63 544.9,-174.9 541.07,-175.93 541.07,-168.8 		"/>
		<polygon class="st3" points="539.11,-136.19 541.07,-135.88 541.07,-148.51 542.31,-148.91 540.89,-151.7 531.07,-148.51 
			531.07,-146.76 540.98,-141.71 534.19,-134.91 531.07,-135.75 531.07,-131.54 532.2,-129.98 537.51,-133.05 		"/>
		<polygon class="st3" points="542.13,-135.72 541.07,-135.88 541.07,-135.1 		"/>
		<polygon class="st3" points="542.31,-148.91 544.29,-145.02 549.36,-150.09 549.36,-151.2 		"/>
		<polygon class="st3" points="514.92,-175.99 504.57,-179.35 505.11,-175.93 513.01,-173.36 		"/>
		<polygon class="st3" points="522.79,-191.21 522.23,-191.78 518,-194.22 503.54,-185.87 504.38,-180.58 		"/>
		<polygon class="st3" points="504.38,-180.58 503.09,-179.83 504.57,-179.35 		"/>
		<polygon class="st3" points="524.64,-189.37 525.16,-190.08 523,-191.33 522.79,-191.21 		"/>
		<polygon class="st3" points="492.09,-144.58 496.64,-150.83 496.64,-164.24 486.64,-159.15 486.64,-150.97 492.73,-146.54 		"/>
		<polygon class="st3" points="496.64,-164.24 497.13,-164.49 496.64,-165.17 		"/>
		<polygon class="st3" points="486.64,-139.89 488.08,-139.06 491.48,-143.74 486.64,-144.5 		"/>
		<polygon class="st3" points="511,-138.74 514.92,-140.01 514.86,-140.09 511.1,-141.1 510.87,-141.94 508.23,-141.08 
			510.69,-140.69 		"/>
		<polygon class="st3" points="513.26,-124.52 518,-121.78 523,-124.67 512.25,-130.88 		"/>
		<polygon class="st3" points="503.09,-136.17 512.25,-130.88 511,-138.74 		"/>
	</g>
	<g class="st2">
		<polygon class="st3" points="122.56,594.05 59.96,575.98 112.92,560.69 107,540.16 107,549.12 84.24,542.55 61.49,535.98 
			84.24,529.41 102.38,524.17 101.17,519.98 74.9,428.96 65.97,459.87 73,457.84 73,470.98 73,484.12 60.05,480.38 55.8,495.11 
			83.04,502.98 50.85,512.27 48.62,519.98 22.35,611 35,611 35,592.43 99.34,611 127.45,611 		"/>
		<polygon class="st3" points="27.44,262.95 90.04,281.02 37.08,296.31 43,316.84 43,307.88 65.76,314.45 88.51,321.02 
			65.76,327.59 47.62,332.83 48.83,337.02 75.1,428.04 84.03,397.13 77,399.16 77,386.02 77,372.88 89.95,376.62 94.2,361.89 
			66.96,354.02 99.15,344.73 101.38,337.02 127.65,246 115,246 115,264.57 50.66,246 22.55,246 		"/>
		<polygon class="st3" points="-90.55,476.06 -72.48,413.46 -57.19,466.42 -36.66,460.5 -45.62,460.5 -39.05,437.74 -32.48,414.99 
			-25.91,437.74 -20.67,455.88 -16.48,454.67 74.54,428.4 43.63,419.47 45.66,426.5 32.52,426.5 19.38,426.5 23.12,413.55 
			8.39,409.3 0.52,436.54 -8.77,404.35 -16.48,402.12 -107.5,375.85 -107.5,388.5 -88.93,388.5 -107.5,452.84 -107.5,480.95 		"/>
		<polygon class="st3" points="240.55,380.94 222.48,443.54 207.19,390.58 186.66,396.5 195.62,396.5 189.05,419.26 182.48,442.01 
			175.91,419.26 170.67,401.12 166.48,402.33 75.46,428.6 106.37,437.53 104.34,430.5 117.48,430.5 130.62,430.5 126.88,443.45 
			141.61,447.7 149.48,420.46 158.77,452.65 166.48,454.88 257.5,481.15 257.5,468.5 238.93,468.5 257.5,404.16 257.5,376.05 		"/>
		<polygon class="st3" points="150.34,470.22 121.82,485.96 135.14,461.83 125.79,456.67 128.96,459.83 118.59,465.55 
			108.22,471.28 113.95,460.91 118.51,452.64 116.6,451.59 75.13,428.7 82.9,442.78 84.67,439.58 89.31,444.23 93.96,448.87 
			88.06,452.13 91.76,458.84 104.18,451.99 96.08,466.66 98.02,470.17 120.91,511.64 125.38,507.17 118.82,500.6 148.13,484.42 
			158.07,474.48 		"/>
		<polygon class="st3" points="128.27,515.54 156.79,499.8 143.47,523.93 152.82,529.09 149.65,525.93 160.02,520.2 170.39,514.48 
			164.67,524.85 160.11,533.11 162.02,534.17 203.49,557.06 195.71,542.98 193.95,546.18 189.3,541.53 184.66,536.89 190.56,533.63 
			186.85,526.92 174.44,533.77 182.53,519.1 180.6,515.59 157.71,474.12 153.23,478.59 159.8,485.16 130.48,501.34 120.55,511.28 		
			"/>
		<polygon class="st3" points="31.97,503.92 16.23,475.4 40.36,488.72 45.52,479.37 42.35,482.53 36.63,472.16 30.91,461.8 
			41.28,467.52 49.54,472.08 50.6,470.17 73.49,428.7 59.4,436.47 62.6,438.24 57.96,442.88 53.31,447.53 50.06,441.63 
			43.35,445.34 50.2,457.75 35.53,449.65 32.02,451.59 -9.45,474.48 -4.98,478.95 1.59,472.39 17.77,501.7 27.71,511.64 		"/>
		<polygon class="st3" points="-13.36,481.84 2.39,510.36 -21.75,497.04 -26.91,506.39 -23.74,503.23 -18.02,513.59 -12.3,523.96 
			-22.66,518.24 -30.93,513.68 -31.98,515.59 -54.87,557.06 -40.79,549.29 -43.99,547.52 -39.35,542.87 -34.7,538.23 -31.45,544.13 
			-24.73,540.42 -31.58,528.01 -16.91,536.11 -13.4,534.17 28.07,511.28 23.59,506.8 17.03,513.37 0.85,484.06 -9.09,474.12 		"/>
		<polygon class="st3" points="-1.73,385.54 26.79,369.8 13.47,393.93 22.82,399.09 19.65,395.93 30.02,390.2 40.39,384.48 
			34.67,394.85 30.11,403.11 32.02,404.17 73.49,427.06 65.71,412.98 63.95,416.18 59.3,411.53 54.66,406.89 60.56,403.63 
			56.85,396.92 44.44,403.77 52.53,389.1 50.6,385.59 27.71,344.12 23.23,348.59 29.8,355.16 0.48,371.34 -9.45,381.28 		"/>
		<polygon class="st3" points="20.34,340.22 -8.18,355.96 5.14,331.83 -4.21,326.67 -1.04,329.83 -11.41,335.55 -21.78,341.28 
			-16.05,330.91 -11.49,322.64 -13.4,321.59 -54.87,298.7 -47.1,312.78 -45.33,309.58 -40.69,314.23 -36.04,318.87 -41.94,322.13 
			-38.24,328.84 -25.82,321.99 -33.92,336.66 -31.98,340.17 -9.09,381.64 -4.62,377.17 -11.18,370.6 18.13,354.42 28.07,344.48 		
			"/>
		<polygon class="st3" points="116.64,351.84 132.39,380.36 108.25,367.04 103.09,376.39 106.26,373.23 111.98,383.59 117.7,393.96 
			107.34,388.24 99.07,383.68 98.02,385.59 75.13,427.06 89.21,419.29 86.01,417.52 90.65,412.87 95.3,408.23 98.55,414.13 
			105.27,410.42 98.42,398.01 113.09,406.11 116.6,404.17 158.07,381.28 153.59,376.8 147.03,383.37 130.85,354.06 120.91,344.12 		
			"/>
		<polygon class="st3" points="161.97,373.92 146.23,345.4 170.36,358.72 175.52,349.37 172.35,352.53 166.63,342.16 160.91,331.8 
			171.28,337.52 179.54,342.08 180.6,340.17 203.49,298.7 189.4,306.47 192.6,308.24 187.96,312.88 183.31,317.53 180.06,311.63 
			173.35,315.34 180.2,327.75 165.53,319.65 162.02,321.59 120.55,344.48 125.02,348.95 131.59,342.39 147.77,371.7 157.71,381.64 
					"/>
	</g>
	<g class="st2">
		<polygon class="st3" points="561.74,489.35 560.57,485.29 558.97,486.18 557.72,490.51 		"/>
		<polygon class="st3" points="556.6,494.38 556.13,496.01 565.09,500.96 563.79,496.45 		"/>
		<polygon class="st3" points="559.24,606.55 582,613.12 582,604.16 586.03,618.12 597.92,614.69 592,594.16 592,603.12 
			569.24,596.55 558.81,593.54 536.49,599.98 		"/>
		<polygon class="st3" points="545.72,563.42 535.85,566.27 533.62,573.98 533.61,574.03 558.04,566.98 		"/>
		<polygon class="st3" points="548,535.23 545.05,534.38 541.62,546.27 548,548.12 		"/>
		<polygon class="st3" points="571.08,530.66 572.78,527.58 570.77,520.63 566.76,522.84 563.06,516.13 568.59,513.07 
			568.36,512.28 564.31,508.23 559.67,503.58 557.9,506.78 554.7,500.98 553.45,505.28 555.55,512.55 558,511.84 558,521.03 
			575.49,581.61 587.38,578.17 586.17,573.98 576.51,540.49 573.02,534.17 		"/>
		<polygon class="st3" points="510,665 520,665 520,659.31 510,656.43 		"/>
		<polygon class="st3" points="597.56,658.05 599.56,665 612.45,665 607.56,648.05 557.28,633.54 534.96,639.98 		"/>
		<polygon class="st3" points="576.39,400.97 584.15,398.73 586.38,391.02 612.65,300 600,300 600,310 602.65,310 		"/>
		<polygon class="st3" points="569.2,425.89 568.38,428.73 574.95,430.62 579.2,415.89 564.28,411.58 541.96,418.02 		"/>
		<polygon class="st3" points="590,328.57 590,315.69 535.66,300 507.55,300 510.44,310 525.66,310 		"/>
		<polygon class="st3" points="552,450.02 552,453.97 554.45,462.45 559.03,461.13 556.55,469.72 558.39,476.1 565.58,463.05 
			569.03,451.13 562,453.16 562,440.02 562,439.77 552,436.88 		"/>
		<polygon class="st3" points="552.72,341.46 522.08,350.31 523.97,356.88 565.04,345.02 		"/>
		<polygon class="st3" points="563.51,385.02 551.19,381.46 550.76,381.59 532.62,386.83 533.83,391.02 534.51,393.39 
			540.76,391.59 		"/>
		<polygon class="st3" points="538.95,480.18 540.71,476.98 545.88,486.34 548.26,485.65 546.21,478.55 533.71,474.94 534.3,475.53 
					"/>
		<polygon class="st3" points="435.95,501.74 430.81,519.56 448.34,514.5 439.38,514.5 445.95,491.74 446.08,491.31 442.52,478.99 
					"/>
		<polygon class="st3" points="386.69,532.3 394.45,530.06 406.08,489.78 402.52,477.46 		"/>
		<polygon class="st3" points="494.38,490.5 507.52,490.5 520.66,490.5 518.63,483.47 537.22,488.84 541.98,487.47 529.36,480.5 
			517.52,480.5 504.38,480.5 507.82,468.61 507.02,468.17 505.11,467.11 505.31,466.74 493.39,463.3 489.95,475.2 498.12,477.55 		
			"/>
		<polygon class="st3" points="552.28,484.49 554.03,483.99 555.54,481.24 553.4,480.62 		"/>
		<polygon class="st3" points="466.23,468.35 475.52,500.54 481.96,478.22 476.23,458.35 468.52,456.12 377.5,429.85 377.5,442.5 
			396.07,442.5 394.58,447.66 458.52,466.12 		"/>
		<polygon class="st3" points="742.5,430.05 725.55,434.94 723.31,442.7 732.5,440.05 732.5,468.16 715.42,527.34 742.5,535.15 
			742.5,522.5 723.93,522.5 742.5,458.16 		"/>
		<polygon class="st3" points="697.48,507.54 703.92,485.22 692.19,444.58 671.66,450.5 680.62,450.5 679.19,455.44 682.19,454.58 
					"/>
		<polygon class="st3" points="620.05,499.8 626.61,501.7 628.04,496.78 624.48,484.46 		"/>
		<polygon class="st3" points="563.73,483.55 572.78,486.16 641.48,466.33 645.67,465.12 650.91,483.26 657.48,506.01 
			663.92,483.69 660.91,473.26 655.67,455.12 651.48,456.33 562.11,482.13 564.21,483.29 		"/>
		<polygon class="st3" points="561.33,484.88 563.51,488.83 568.59,487.37 562.7,484.12 		"/>
		<polygon class="st3" points="602.3,505.98 601.6,505.59 581.51,494.5 579.34,494.5 581.37,501.53 576.09,500 578.96,502.87 
			573.76,505.74 581.69,510.12 589.18,505.99 585.68,512.32 591.6,515.59 593.51,516.64 588.95,524.91 586.19,529.91 587.76,532.77 
			593.59,529.55 603.96,523.83 601.07,520.94 593.22,525.28 598.95,514.91 602.9,507.74 601.88,507.45 		"/>
		<polygon class="st3" points="610.02,560.8 606.7,557.49 602.64,559.73 605.65,565.17 		"/>
		<polygon class="st3" points="643.07,528.48 642.83,528.35 642.96,528.58 		"/>
		<polygon class="st3" points="597.04,549.57 597.15,549.78 625.34,534.22 632.6,538.22 632.71,538.12 632.83,538.35 633.04,538.47 
			633.13,538.42 638.59,532.95 638.23,532.59 642.6,528.22 635.34,524.22 606.82,539.96 620.14,515.83 610.79,510.67 613.96,513.83 
			603.59,519.55 601.18,520.88 610.14,525.83 		"/>
		<polygon class="st3" points="637.82,583.09 637.54,582.81 637.43,582.88 		"/>
		<polygon class="st3" points="610.02,560.8 610.38,561.17 607.1,564.45 634.8,549.16 631.91,546.27 615.48,555.34 		"/>
		<polygon class="st3" points="605.65,565.17 605.55,565.28 605.57,565.29 605.68,565.23 		"/>
		<polygon class="st3" points="644.8,539.16 635.97,544.03 641.46,553.98 641.79,553.8 641.57,554.19 650.85,570.99 655.39,568.48 
			652.43,573.85 655.6,579.59 657.53,583.1 652.93,591.43 656.92,593.64 661.85,590.92 665.56,597.63 664.86,598.02 688.49,611.06 
			680.71,596.98 678.95,600.18 674.3,595.53 669.66,590.89 675.56,587.63 671.85,580.92 659.44,587.77 667.53,573.1 665.6,569.59 
			642.96,528.58 638.59,532.95 		"/>
		<polygon class="st3" points="642.71,528.12 642.6,528.22 642.83,528.35 		"/>
		<polygon class="st3" points="502.77,555.7 508.23,561.17 508.59,560.8 512.96,565.17 516.97,557.92 513.55,551.72 494.88,541.41 
					"/>
		<polygon class="st3" points="537.6,502.24 534.4,500.47 536.95,499.06 535.51,496.45 531.46,497.62 528.35,499.34 532.67,507.17 
			532.96,506.88 		"/>
		<polygon class="st3" points="530.62,509.22 525.47,506.38 528.31,511.53 		"/>
		<polygon class="st3" points="550.67,490.07 553.1,485.67 551.72,486.43 		"/>
		<polygon class="st3" points="475.55,528.48 475.65,528.58 475.78,528.35 		"/>
		<polygon class="st3" points="524.54,536.08 516.28,531.52 505.91,525.8 510.82,534.69 525.36,542.72 530.52,533.37 527.35,536.53 
			525.82,533.76 525.6,534.17 		"/>
		<polygon class="st3" points="550.9,496.44 551.55,495.27 550.13,492.7 552.3,493.9 552.67,493.24 550.46,492.6 553.51,491.72 
			555.51,488.09 550.44,490.89 550.1,492.04 548.93,487.97 547.28,488.88 548.49,491.06 545.91,489.64 544.4,490.47 546.08,491.4 
			549.54,492.4 548.48,492.7 531.11,524.18 534.54,526.08 535.6,524.17 546.69,504.07 549.9,492.96 		"/>
		<polygon class="st3" points="512.71,565.64 512.83,565.41 512.6,565.54 		"/>
		<polygon class="st3" points="545.49,494.35 548.47,492.71 546.6,493.25 		"/>
		<polygon class="st3" points="485.52,527.46 486.59,526.39 486.79,526.75 507.02,515.59 510.53,513.65 516.57,516.98 515.91,515.8 
			524.54,520.56 518.35,509.34 524.59,505.89 520.53,503.65 517.02,505.59 476.01,528.22 478.9,531.11 		"/>
		<polygon class="st3" points="513.07,565.28 512.96,565.17 512.83,565.41 		"/>
		<polygon class="st3" points="505.02,564.38 506.97,567.92 506.39,568.96 512.6,565.54 508.23,561.17 		"/>
		<polygon class="st3" points="475.91,528.12 475.78,528.35 476.01,528.22 		"/>
		<polygon class="st3" points="435.65,606.87 433.12,609.41 441.66,604.69 440.3,602.23 		"/>
		<polygon class="st3" points="453.55,598.13 454.03,597.87 453.14,597.38 		"/>
		<polygon class="st3" points="454.07,583.2 453.42,582.01 462.05,586.77 456.98,577.59 452.79,570 447.51,579.57 452.34,582.24 		
			"/>
		<polygon class="st3" points="483.73,562.34 491.82,577 493.1,576.3 498.23,571.17 492.77,565.7 476.59,536.39 473.6,539.38 
			487.39,564.36 		"/>
		<polygon class="st3" points="475.65,528.58 472.22,534.79 478.43,531.37 		"/>
		<polygon class="st3" points="445.94,596.59 447.99,594.54 443.42,592.01 		"/>
		<polygon class="st3" points="465.07,552.04 463.25,551.04 458.09,560.39 461.26,557.23 466.98,567.59 467.79,569.07 
			477.39,574.36 		"/>
		<polygon class="st3" points="512.71,398.12 512.6,398.22 512.83,398.35 		"/>
		<polygon class="st3" points="507.82,453.09 507.54,452.81 507.43,452.88 		"/>
		<polygon class="st3" points="556.31,479.86 557.07,478.49 555.06,474.86 553.99,478.58 		"/>
		<polygon class="st3" points="475.65,435.17 475.55,435.28 475.57,435.29 475.68,435.23 		"/>
		<polygon class="st3" points="480.02,430.8 480.38,431.17 477.1,434.45 504.8,419.16 501.91,416.27 485.48,425.34 		"/>
		<polygon class="st3" points="514.8,409.16 505.97,414.03 511.46,423.98 511.79,423.8 511.57,424.19 520.85,440.99 525.39,438.48 
			522.43,443.85 525.6,449.59 527.53,453.1 522.93,461.43 526.92,463.64 531.85,460.92 535.56,467.63 534.86,468.02 544.74,473.47 
			541.7,462.93 539.66,460.89 540.91,460.2 538.73,452.64 529.44,457.77 536.51,444.96 534.26,437.17 512.96,398.58 508.59,402.95 
					"/>
		<polygon class="st3" points="459.18,375.99 455.68,382.32 461.6,385.59 463.51,386.64 458.95,394.91 456.19,399.91 457.76,402.77 
			463.59,399.55 473.96,393.83 471.07,390.94 463.22,395.28 468.95,384.91 473.51,376.64 471.6,375.59 430.13,352.7 437.9,366.78 
			439.67,363.58 444.31,368.23 448.96,372.87 443.76,375.74 451.69,380.12 		"/>
		<polygon class="st3" points="480.02,430.8 476.7,427.49 472.64,429.73 475.65,435.17 		"/>
		<polygon class="st3" points="467.04,419.57 467.15,419.78 495.34,404.22 502.6,408.22 502.71,408.12 502.83,408.35 503.04,408.47 
			503.13,408.42 508.59,402.95 508.23,402.59 512.6,398.22 505.34,394.22 476.82,409.96 490.14,385.83 480.79,380.67 483.96,383.83 
			473.59,389.55 471.18,390.88 480.14,395.83 		"/>
		<polygon class="st3" points="513.07,398.48 512.83,398.35 512.96,398.58 		"/>
		<polygon class="st3" points="565.65,476.87 563.12,479.41 571.66,474.69 570.3,472.23 		"/>
		<polygon class="st3" points="643.07,435.28 642.96,435.17 642.83,435.41 		"/>
		<polygon class="st3" points="584.07,453.2 583.42,452.01 592.05,456.77 586.98,447.59 582.79,440 577.51,449.57 582.34,452.24 		
			"/>
		<polygon class="st3" points="583.55,468.13 584.03,467.87 583.14,467.38 		"/>
		<polygon class="st3" points="605.91,398.12 605.78,398.35 606.01,398.22 		"/>
		<polygon class="st3" points="595.07,422.04 593.25,421.04 588.09,430.39 591.26,427.23 596.98,437.59 597.79,439.07 
			607.39,444.36 		"/>
		<polygon class="st3" points="628.23,441.17 622.77,435.7 606.59,406.39 603.6,409.38 617.39,434.36 613.73,432.34 621.82,447 
			623.1,446.3 		"/>
		<polygon class="st3" points="575.94,466.59 577.99,464.54 573.42,462.01 		"/>
		<polygon class="st3" points="635.02,434.38 636.97,437.92 636.39,438.96 642.6,435.54 638.23,431.17 		"/>
		<polygon class="st3" points="605.65,398.58 602.22,404.79 608.43,401.37 		"/>
		<polygon class="st3" points="654.54,406.08 646.28,401.52 635.91,395.8 640.82,404.69 655.36,412.72 660.52,403.37 657.35,406.53 
			655.82,403.76 655.6,404.17 		"/>
		<polygon class="st3" points="632.77,425.7 638.23,431.17 638.59,430.8 642.96,435.17 646.97,427.92 643.55,421.72 624.88,411.41 
					"/>
		<polygon class="st3" points="605.55,398.48 605.65,398.58 605.78,398.35 		"/>
		<polygon class="st3" points="660.62,379.22 655.47,376.38 658.31,381.53 		"/>
		<polygon class="st3" points="642.71,435.64 642.83,435.41 642.6,435.54 		"/>
		<polygon class="st3" points="615.52,397.46 616.59,396.39 616.79,396.75 637.02,385.59 640.53,383.65 646.57,386.98 645.91,385.8 
			654.54,390.56 648.35,379.34 654.59,375.89 650.53,373.65 647.02,375.59 606.01,398.22 608.9,401.11 		"/>
		<polygon class="st3" points="667.6,372.24 664.4,370.47 666.95,369.06 665.06,365.63 658.35,369.34 662.67,377.17 662.96,376.88 
					"/>
		<polygon class="st3" points="661.11,394.18 664.54,396.08 665.6,394.17 688.49,352.7 674.4,360.47 677.6,362.24 675.49,364.35 
			678.49,362.7 		"/>
		<polygon class="st3" points="520,646.43 520,659.31 574.34,675 602.45,675 599.56,665 584.34,665 		"/>
		<polygon class="st3" points="558,524.98 558,521.03 555.55,512.55 550.97,513.87 553.45,505.28 550.9,496.44 546.69,504.07 
			540.97,523.87 548,521.84 548,534.98 548,535.23 558,538.12 		"/>
		<polygon class="st3" points="540.8,549.11 541.62,546.27 535.05,544.38 530.8,559.11 545.72,563.42 568.04,556.98 		"/>
		<polygon class="st3" points="546.49,589.98 558.81,593.54 559.24,593.41 577.38,588.17 576.17,583.98 575.49,581.61 
			569.24,583.41 		"/>
		<polygon class="st3" points="557.28,633.54 587.92,624.69 586.03,618.12 544.96,629.98 		"/>
		<polygon class="st3" points="533.61,574.03 525.85,576.27 523.62,583.98 497.35,675 510,675 510,665 507.35,665 		"/>
		<polygon class="st3" points="550.76,368.45 528,361.88 528,370.84 523.97,356.88 512.08,360.31 518,380.84 518,371.88 
			540.76,378.45 551.19,381.46 573.51,375.02 		"/>
		<polygon class="st3" points="512.44,316.95 510.44,310 497.55,310 502.44,326.95 552.72,341.46 575.04,335.02 		"/>
		<polygon class="st3" points="537.53,443.1 536.51,444.96 538.73,452.64 541.85,450.92 545.56,457.63 540.91,460.2 541.7,462.93 
			544.3,465.53 548.95,470.18 550.71,466.98 555.06,474.86 556.55,469.72 554.45,462.45 552,463.16 552,453.97 534.51,393.39 
			522.62,396.83 523.83,401.02 534.26,437.17 535.6,439.59 		"/>
		<polygon class="st3" points="600,310 590,310 590,315.69 600,318.57 		"/>
		<polygon class="st3" points="562,439.77 564.95,440.62 568.38,428.73 562,426.88 		"/>
		<polygon class="st3" points="553.4,480.62 553.99,478.58 544.74,473.47 546.21,478.55 		"/>
		<polygon class="st3" points="552.28,484.49 548.26,485.65 548.93,487.97 551.72,486.43 		"/>
		<polygon class="st3" points="564.28,411.58 574.15,408.73 576.38,401.02 576.39,400.97 551.96,408.02 		"/>
		<polygon class="st3" points="535.51,496.45 546.6,493.25 547.6,492.24 546.08,491.4 537.22,488.84 468.52,508.67 464.33,509.88 
			459.09,491.74 452.52,468.99 446.08,491.31 449.09,501.74 454.33,519.88 458.52,518.67 531.46,497.62 535.06,495.63 		"/>
		<polygon class="st3" points="489.95,475.2 483.39,473.3 481.96,478.22 485.52,490.54 		"/>
		<polygon class="st3" points="412.52,467.46 406.08,489.78 417.81,530.42 438.34,524.5 429.38,524.5 430.81,519.56 427.81,520.42 
					"/>
		<polygon class="st3" points="377.5,506.84 394.58,447.66 367.5,439.85 367.5,452.5 386.07,452.5 367.5,516.84 367.5,544.95 
			384.45,540.06 386.69,532.3 377.5,534.95 		"/>
		<polygon class="st3" points="674.05,473.26 679.19,455.44 661.66,460.5 670.62,460.5 664.05,483.26 663.92,483.69 667.48,496.01 
					"/>
		<polygon class="st3" points="569.67,493.58 567.9,496.78 563.51,488.83 561.74,489.35 563.79,496.45 576.09,500 574.31,498.23 		
			"/>
		<polygon class="st3" points="723.31,442.7 715.55,444.94 703.92,485.22 707.48,497.54 		"/>
		<polygon class="st3" points="643.77,506.65 634.48,474.46 628.04,496.78 633.77,516.65 641.48,518.88 732.5,545.15 732.5,532.5 
			713.93,532.5 715.42,527.34 651.48,508.88 		"/>
		<polygon class="st3" points="557.72,490.51 553.51,491.72 552.67,493.24 556.6,494.38 		"/>
		<polygon class="st3" points="615.62,484.5 602.48,484.5 589.34,484.5 591.37,491.53 572.78,486.16 568.59,487.37 581.51,494.5 
			592.48,494.5 605.62,494.5 602.3,505.98 603.51,506.64 602.9,507.74 616.61,511.7 620.05,499.8 611.88,497.45 		"/>
		<polygon class="st3" points="632.96,538.58 633.07,538.48 633.04,538.47 632.93,538.53 		"/>
		<polygon class="st3" points="593.82,564.6 602.64,559.73 597.15,549.78 596.82,549.96 597.04,549.57 587.76,532.77 583.22,535.28 
			586.19,529.91 583.02,524.17 581.08,520.66 585.68,512.32 581.69,510.12 576.76,512.84 573.06,506.13 573.76,505.74 
			565.09,500.96 568.36,512.28 568.96,512.87 568.59,513.07 570.77,520.63 579.18,515.99 572.78,527.58 576.51,540.49 
			595.65,575.17 600.02,570.8 		"/>
		<polygon class="st3" points="628.59,542.95 628.23,542.59 631.51,539.31 603.82,554.6 606.7,557.49 623.13,548.42 		"/>
		<polygon class="st3" points="595.91,575.64 596.01,575.54 595.78,575.41 		"/>
		<polygon class="st3" points="552.3,493.9 551.55,495.27 554.7,500.98 556.13,496.01 		"/>
		<polygon class="st3" points="600.79,520.67 601.07,520.94 601.18,520.88 		"/>
		<polygon class="st3" points="628.59,542.95 631.91,546.27 635.97,544.03 632.96,538.58 		"/>
		<polygon class="st3" points="641.57,554.19 641.46,553.98 613.27,569.54 606.01,565.54 605.91,565.64 605.78,565.41 
			605.57,565.29 605.48,565.34 600.02,570.8 600.38,571.17 596.01,575.54 603.27,579.54 631.79,563.8 618.47,587.93 627.82,593.09 
			624.65,589.93 635.02,584.2 637.43,582.88 628.47,577.93 		"/>
		<polygon class="st3" points="649.44,597.77 652.93,591.43 647.02,588.17 645.11,587.11 649.67,578.85 652.43,573.85 
			650.85,570.99 645.02,574.2 634.65,579.93 637.54,582.81 645.39,578.48 639.67,588.85 635.11,597.11 637.02,598.17 678.49,621.06 
			670.71,606.98 668.95,610.18 664.3,605.53 659.66,600.89 664.86,598.02 656.92,593.64 		"/>
		<polygon class="st3" points="595.55,575.28 595.78,575.41 595.65,575.17 		"/>
		<polygon class="st3" points="605.68,565.23 605.78,565.41 606.01,565.54 607.1,564.45 		"/>
		<polygon class="st3" points="632.93,538.53 632.83,538.35 632.6,538.22 631.51,539.31 		"/>
		<polygon class="st3" points="538.31,501.53 542.96,496.88 545.49,494.35 536.95,499.06 		"/>
		<polygon class="st3" points="525.06,505.63 524.59,505.89 525.47,506.38 		"/>
		<polygon class="st3" points="502.96,575.17 506.39,568.96 500.18,572.39 		"/>
		<polygon class="st3" points="513.55,551.72 515.36,552.72 520.52,543.37 517.35,546.53 511.63,536.16 510.82,534.69 501.23,529.4 
					"/>
		<polygon class="st3" points="502.71,575.64 502.83,575.41 502.6,575.54 		"/>
		<polygon class="st3" points="524.54,520.56 525.2,521.75 516.57,516.98 521.63,526.16 525.82,533.76 531.11,524.18 526.28,521.52 
					"/>
		<polygon class="st3" points="473.6,539.38 471.64,535.84 472.22,534.79 466.01,538.22 470.38,542.59 		"/>
		<polygon class="st3" points="480.38,532.59 485.85,538.06 502.03,567.37 505.02,564.38 491.23,539.4 494.88,541.41 486.79,526.75 
			485.52,527.46 		"/>
		<polygon class="st3" points="465.55,538.48 465.65,538.58 465.78,538.35 		"/>
		<polygon class="st3" points="532.67,507.17 530.62,509.22 535.2,511.75 		"/>
		<polygon class="st3" points="478.43,531.37 480.02,532.95 480.38,532.59 478.9,531.11 		"/>
		<polygon class="st3" points="548.47,492.71 548.48,492.7 548.49,492.7 		"/>
		<polygon class="st3" points="493.1,576.3 492.03,577.37 491.82,577 471.6,588.17 468.09,590.11 462.05,586.77 462.7,587.96 
			454.07,583.2 460.27,594.42 454.03,597.87 458.09,600.11 461.6,598.17 502.6,575.54 499.71,572.65 		"/>
		<polygon class="st3" points="441.01,601.52 444.21,603.29 441.66,604.69 443.55,608.13 450.27,604.42 445.94,596.59 
			445.65,596.87 		"/>
		<polygon class="st3" points="454.07,567.68 462.34,572.24 472.7,577.96 467.79,569.07 453.25,561.04 448.09,570.39 451.26,567.23 
			452.79,570 453.02,569.59 		"/>
		<polygon class="st3" points="475.85,548.06 470.38,542.59 470.02,542.95 465.65,538.58 461.64,545.84 465.07,552.04 
			483.73,562.34 		"/>
		<polygon class="st3" points="447.51,579.57 444.07,577.68 443.02,579.59 420.13,621.06 434.21,613.29 431.01,611.52 
			433.12,609.41 430.13,611.06 		"/>
		<polygon class="st3" points="465.91,538.12 465.78,538.35 466.01,538.22 		"/>
		<polygon class="st3" points="503.07,575.28 502.96,575.17 502.83,575.41 		"/>
		<polygon class="st3" points="447.99,594.54 453.14,597.38 450.3,592.23 		"/>
		<polygon class="st3" points="500.18,572.39 498.59,570.8 498.23,571.17 499.71,572.65 		"/>
		<polygon class="st3" points="498.59,412.95 501.91,416.27 505.97,414.03 502.96,408.58 		"/>
		<polygon class="st3" points="541.98,487.47 545.91,489.64 547.28,488.88 545.88,486.34 		"/>
		<polygon class="st3" points="511.57,424.19 511.46,423.98 483.27,439.54 476.01,435.54 475.91,435.64 475.78,435.41 
			475.57,435.29 475.48,435.34 470.02,440.8 470.38,441.17 466.01,445.54 473.27,449.54 501.79,433.8 488.47,457.93 497.82,463.09 
			494.65,459.93 505.02,454.2 507.43,452.88 498.47,447.93 		"/>
		<polygon class="st3" points="465.55,445.28 465.78,445.41 465.65,445.17 		"/>
		<polygon class="st3" points="507.82,468.61 529.36,480.5 530.66,480.5 528.63,473.47 533.71,474.94 529.66,470.89 534.86,468.02 
			526.92,463.64 519.44,467.77 522.93,461.43 517.02,458.17 515.11,457.11 519.67,448.85 522.43,443.85 520.85,440.99 515.02,444.2 
			504.65,449.93 507.54,452.81 515.39,448.48 509.67,458.85 505.31,466.74 508.12,467.55 		"/>
		<polygon class="st3" points="475.68,435.23 475.78,435.41 476.01,435.54 477.1,434.45 		"/>
		<polygon class="st3" points="502.96,408.58 503.07,408.48 503.04,408.47 502.93,408.53 		"/>
		<polygon class="st3" points="463.82,434.6 472.64,429.73 467.15,419.78 466.82,419.96 467.04,419.57 457.76,402.77 453.22,405.28 
			456.19,399.91 453.02,394.17 451.08,390.66 455.68,382.32 451.69,380.12 446.76,382.84 443.06,376.13 443.76,375.74 420.13,362.7 
			427.9,376.78 429.67,373.58 434.31,378.23 438.96,382.87 433.06,386.13 436.76,392.84 449.18,385.99 441.08,400.66 443.02,404.17 
			465.65,445.17 470.02,440.8 		"/>
		<polygon class="st3" points="498.59,412.95 498.23,412.59 501.51,409.31 473.82,424.6 476.7,427.49 493.13,418.42 		"/>
		<polygon class="st3" points="470.79,390.67 471.07,390.94 471.18,390.88 		"/>
		<polygon class="st3" points="465.91,445.64 466.01,445.54 465.78,445.41 		"/>
		<polygon class="st3" points="502.93,408.53 502.83,408.35 502.6,408.22 501.51,409.31 		"/>
		<polygon class="st3" points="595.91,408.12 595.78,408.35 596.01,408.22 		"/>
		<polygon class="st3" points="633.07,445.28 632.96,445.17 632.83,445.41 		"/>
		<polygon class="st3" points="623.1,446.3 622.03,447.37 621.82,447 601.6,458.17 598.09,460.11 592.05,456.77 592.7,457.96 
			584.07,453.2 590.27,464.42 584.03,467.87 588.09,470.11 591.6,468.17 632.6,445.54 629.71,442.65 		"/>
		<polygon class="st3" points="560.1,482.04 558.39,476.1 557.07,478.49 558.49,481.06 556.31,479.86 555.54,481.24 559.54,482.4 
			558.48,482.7 555.51,488.09 558.97,486.18 559.9,482.96 560.57,485.29 561.33,484.88 560.13,482.7 562.7,484.12 563.73,483.55 
			560.46,482.6 562.11,482.13 561.01,481.52 563.12,479.41 560.44,480.89 		"/>
		<polygon class="st3" points="605.85,418.06 600.38,412.59 600.02,412.95 595.65,408.58 591.64,415.84 595.07,422.04 
			613.73,432.34 		"/>
		<polygon class="st3" points="571.01,471.52 574.21,473.29 571.66,474.69 573.55,478.13 580.27,474.42 575.94,466.59 
			575.65,466.87 		"/>
		<polygon class="st3" points="577.99,464.54 583.14,467.38 580.3,462.23 		"/>
		<polygon class="st3" points="584.07,437.68 592.34,442.24 602.7,447.96 597.79,439.07 583.25,431.04 578.09,440.39 581.26,437.23 
			582.79,440 583.02,439.59 		"/>
		<polygon class="st3" points="577.51,449.57 574.07,447.68 573.02,449.59 565.58,463.05 560.67,480.07 		"/>
		<polygon class="st3" points="553.1,485.67 558.47,482.71 554.03,483.99 		"/>
		<polygon class="st3" points="558.47,482.71 558.48,482.7 558.49,482.7 		"/>
		<polygon class="st3" points="560.13,481.06 560.44,480.89 560.67,480.07 		"/>
		<polygon class="st3" points="550.13,491.06 550.44,490.89 550.67,490.07 		"/>
		<polygon class="st3" points="632.71,445.64 632.83,445.41 632.6,445.54 		"/>
		<polygon class="st3" points="654.54,390.56 655.2,391.75 646.57,386.98 651.63,396.16 655.82,403.76 661.11,394.18 656.28,391.52 
					"/>
		<polygon class="st3" points="662.67,377.17 660.62,379.22 665.2,381.75 		"/>
		<polygon class="st3" points="603.6,409.38 601.64,405.84 602.22,404.79 596.01,408.22 600.38,412.59 		"/>
		<polygon class="st3" points="672.96,366.88 675.49,364.35 666.95,369.06 668.31,371.53 		"/>
		<polygon class="st3" points="655.06,375.63 654.59,375.89 655.47,376.38 		"/>
		<polygon class="st3" points="632.96,445.17 636.39,438.96 630.18,442.39 		"/>
		<polygon class="st3" points="643.55,421.72 645.36,422.72 650.52,413.37 647.35,416.53 641.63,406.16 640.82,404.69 631.23,399.4 
					"/>
		<polygon class="st3" points="624.88,411.41 616.79,396.75 615.52,397.46 610.38,402.59 615.85,408.06 632.03,437.37 
			635.02,434.38 621.23,409.4 		"/>
		<polygon class="st3" points="595.55,408.48 595.65,408.58 595.78,408.35 		"/>
		<polygon class="st3" points="608.43,401.37 610.02,402.95 610.38,402.59 608.9,401.11 		"/>
		<polygon class="st3" points="630.18,442.39 628.59,440.8 628.23,441.17 629.71,442.65 		"/>
	</g>
</g>
<g id="Layer_3">
	<g>
		<polygon class="st3" points="70.53,176.54 51.77,142.55 80.53,158.43 86.68,147.28 82.91,151.06 76.09,138.7 69.27,126.34 
			81.63,133.16 91.48,138.6 92.73,136.32 120.01,86.9 103.23,96.16 107.04,98.27 101.51,103.81 95.97,109.34 92.09,102.31 
			84.09,106.73 92.26,121.52 74.77,111.87 70.59,114.18 21.17,141.46 26.5,146.79 34.32,138.97 53.61,173.9 65.45,185.75 		"/>
		<polygon class="st3" points="169.97,-3.04 188.73,30.95 159.97,15.07 153.82,26.22 157.59,22.44 164.41,34.8 171.23,47.16 
			158.87,40.34 149.02,34.9 147.77,37.18 120.49,86.6 137.27,77.34 133.46,75.23 138.99,69.69 144.53,64.16 148.41,71.19 
			156.41,66.77 148.24,51.98 165.73,61.63 169.91,59.32 219.33,32.04 214,26.71 206.18,34.53 186.89,-0.4 175.05,-12.25 		"/>
		<polygon class="st3" points="30.46,37.03 64.45,18.27 48.57,47.03 59.72,53.18 55.94,49.41 68.3,42.59 80.66,35.77 73.84,48.13 
			68.4,57.98 70.68,59.23 120.1,86.51 110.84,69.73 108.73,73.54 103.19,68.01 97.66,62.47 104.69,58.59 100.27,50.59 85.48,58.76 
			95.13,41.27 92.82,37.09 65.54,-12.33 60.21,-7 68.03,0.82 33.1,20.11 21.25,31.95 		"/>
		<polygon class="st3" points="210.04,136.47 176.05,155.23 191.93,126.47 180.78,120.32 184.56,124.09 172.2,130.91 159.84,137.73 
			166.66,125.37 172.1,115.52 169.82,114.27 120.4,86.99 129.66,103.77 131.77,99.96 137.31,105.49 142.84,111.03 135.81,114.91 
			140.23,122.91 155.02,114.74 145.37,132.23 147.68,136.41 174.96,185.83 180.29,180.5 172.47,172.68 207.4,153.39 219.25,141.55 
					"/>
		<polygon class="st3" points="134.42,136.07 115.77,130.69 131.55,126.13 129.78,120.02 129.78,122.69 123,120.73 116.22,118.77 
			123,116.82 128.41,115.26 128.05,114.01 120.22,86.89 117.56,96.1 119.65,95.49 119.65,99.41 119.65,103.32 115.8,102.21 
			114.53,106.6 122.65,108.94 113.05,111.71 112.39,114.01 104.56,141.13 108.33,141.13 108.33,135.59 127.5,141.13 135.88,141.13 
					"/>
		<polygon class="st3" points="106.02,145.87 124.67,151.25 108.89,155.81 110.65,161.93 110.65,159.26 117.43,161.22 
			124.21,163.17 117.43,165.13 112.03,166.69 112.39,167.94 120.22,195.06 122.88,185.85 120.78,186.45 120.78,182.54 
			120.78,178.62 124.64,179.74 125.91,175.35 117.79,173 127.39,170.24 128.05,167.94 135.88,140.82 132.11,140.82 132.11,146.35 
			112.94,140.82 104.56,140.82 		"/>
		<polygon class="st3" points="70.34,100.4 75.72,81.74 80.28,97.53 86.4,95.76 83.73,95.76 85.69,88.98 87.64,82.2 89.6,88.98 
			91.16,94.39 92.41,94.02 119.53,86.2 110.32,83.54 110.92,85.63 107.01,85.63 103.09,85.63 104.21,81.77 99.82,80.51 97.47,88.62 
			94.71,79.03 92.41,78.37 65.29,70.54 65.29,74.31 70.82,74.31 65.29,93.48 65.29,101.85 		"/>
		<polygon class="st3" points="60.55,72 55.16,90.65 50.61,74.87 44.49,76.63 47.16,76.63 45.2,83.41 43.24,90.19 41.29,83.41 
			39.73,78.01 38.48,78.37 11.36,86.2 20.57,88.85 19.96,86.76 23.88,86.76 27.79,86.76 26.68,90.62 31.07,91.89 33.41,83.77 
			36.18,93.36 38.48,94.02 65.6,101.85 65.6,98.08 60.06,98.08 65.6,78.91 65.6,70.54 		"/>
		<polygon class="st3" points="106.02,36.32 124.67,41.7 108.89,46.26 110.65,52.37 110.65,49.7 117.43,51.66 124.21,53.62 
			117.43,55.58 112.03,57.14 112.39,58.39 120.22,85.51 122.88,76.3 120.78,76.9 120.78,72.99 120.78,69.07 124.64,70.18 
			125.91,65.79 117.79,63.45 127.39,60.68 128.05,58.39 135.88,31.27 132.11,31.27 132.11,36.8 112.94,31.27 104.56,31.27 		"/>
		<polygon class="st3" points="134.42,26.52 115.77,21.14 131.55,16.58 129.78,10.47 129.78,13.13 123,11.18 116.22,9.22 123,7.26 
			128.41,5.7 128.05,4.45 120.22,-22.67 117.56,-13.46 119.65,-14.06 119.65,-10.15 119.65,-6.23 115.8,-7.35 114.53,-2.96 
			122.65,-0.61 113.05,2.16 112.39,4.45 104.56,31.57 108.33,31.57 108.33,26.04 127.5,31.57 135.88,31.57 		"/>
		<polygon class="st3" points="170.1,72 164.71,90.65 160.16,74.87 154.04,76.63 156.71,76.63 154.75,83.41 152.8,90.19 
			150.84,83.41 149.28,78.01 148.03,78.37 120.91,86.2 130.12,88.85 129.52,86.76 133.43,86.76 137.34,86.76 136.23,90.62 
			140.62,91.89 142.96,83.77 145.73,93.36 148.03,94.02 175.15,101.85 175.15,98.08 169.61,98.08 175.15,78.91 175.15,70.54 		"/>
		<polygon class="st3" points="179.89,100.4 185.28,81.74 189.83,97.53 195.95,95.76 193.28,95.76 195.24,88.98 197.2,82.2 
			199.15,88.98 200.71,94.39 201.96,94.02 229.08,86.2 219.87,83.54 220.48,85.63 216.56,85.63 212.65,85.63 213.76,81.77 
			209.37,80.51 207.03,88.62 204.26,79.03 201.96,78.37 174.84,70.54 174.84,74.31 180.38,74.31 174.84,93.48 174.84,101.85 		"/>
	</g>
	<g>
		<polygon class="st3" points="255.2,-2.05 265.97,-39.35 275.08,-7.79 287.31,-11.32 281.98,-11.32 285.89,-24.88 289.8,-38.44 
			293.72,-24.88 296.84,-14.07 299.34,-14.79 353.58,-30.45 335.16,-35.77 336.37,-31.58 328.54,-31.58 320.71,-31.58 322.94,-39.3 
			314.15,-41.83 309.47,-25.6 303.93,-44.78 299.34,-46.11 245.1,-61.77 245.1,-54.23 256.17,-54.23 245.1,-15.89 245.1,0.86 		"/>
		<polygon class="st3" points="452.5,-58.73 441.73,-21.43 432.62,-52.99 420.39,-49.46 425.72,-49.46 421.81,-35.9 417.89,-22.34 
			413.98,-35.9 410.86,-46.71 408.36,-45.99 354.12,-30.33 372.54,-25.01 371.33,-29.2 379.16,-29.2 386.99,-29.2 384.76,-21.48 
			393.54,-18.95 398.23,-35.18 403.77,-16 408.36,-14.67 462.6,0.99 462.6,-6.56 451.53,-6.56 462.6,-44.89 462.6,-61.64 		"/>
		<polygon class="st3" points="325.51,-129.04 362.81,-118.27 331.25,-109.16 334.78,-96.93 334.78,-102.26 348.34,-98.35 
			361.9,-94.44 348.34,-90.52 337.53,-87.4 338.25,-84.9 353.91,-30.66 359.23,-49.08 355.04,-47.87 355.04,-55.7 355.04,-63.53 
			362.76,-61.3 365.29,-70.09 349.06,-74.77 368.24,-80.31 369.57,-84.9 385.23,-139.14 377.68,-139.14 377.68,-128.07 
			339.35,-139.14 322.6,-139.14 		"/>
		<polygon class="st3" points="382.19,68.26 344.89,57.49 376.45,48.38 372.92,36.15 372.92,41.48 359.36,37.57 345.8,33.65 
			359.36,29.74 370.17,26.62 369.45,24.12 353.79,-30.12 348.47,-11.7 352.66,-12.91 352.66,-5.08 352.66,2.75 344.94,0.52 
			342.41,9.3 358.64,13.99 339.46,19.53 338.13,24.12 322.47,78.36 330.01,78.36 330.01,67.29 368.35,78.36 385.1,78.36 		"/>
		<polygon class="st3" points="328.99,14.51 319.61,-2.49 333.99,5.45 337.07,-0.12 335.18,1.76 331.77,-4.42 328.36,-10.59 
			334.54,-7.18 339.46,-4.46 340.09,-5.6 353.73,-30.32 345.34,-25.68 347.25,-24.63 344.48,-21.86 341.71,-19.09 339.77,-22.61 
			335.77,-20.4 339.85,-13.01 331.11,-17.83 329.02,-16.68 304.31,-3.03 306.97,-0.37 310.89,-4.28 320.53,13.19 326.45,19.11 		"/>
		<polygon class="st3" points="301.98,1.35 311.36,18.35 296.98,10.41 293.91,15.98 295.79,14.1 299.2,20.27 302.61,26.45 
			296.44,23.04 291.51,20.32 290.88,21.46 277.24,46.17 285.63,41.54 283.73,40.49 286.49,37.72 289.26,34.95 291.2,38.47 
			295.2,36.26 291.12,28.86 299.86,33.69 301.95,32.53 326.67,18.89 324,16.23 320.09,20.14 310.45,2.67 304.52,-3.25 		"/>
		<polygon class="st3" points="308.91,-56.03 325.9,-65.41 317.97,-51.03 323.54,-47.96 321.65,-49.84 327.83,-53.25 334.01,-56.66 
			330.6,-50.49 327.88,-45.56 329.02,-44.93 353.73,-31.29 349.1,-39.68 348.05,-37.78 345.28,-40.54 342.51,-43.31 346.03,-45.25 
			343.82,-49.25 336.42,-45.17 341.25,-53.91 340.09,-56 326.45,-80.72 323.78,-78.05 327.7,-74.14 310.23,-64.5 304.31,-58.57 		
			"/>
		<polygon class="st3" points="322.06,-83.04 305.07,-73.66 313.01,-88.04 307.43,-91.12 309.32,-89.23 303.14,-85.82 
			296.96,-82.41 300.37,-88.59 303.09,-93.51 301.95,-94.14 277.24,-107.78 281.87,-99.39 282.93,-101.3 285.7,-98.53 
			288.46,-95.76 284.95,-93.82 287.16,-89.82 294.55,-93.9 289.73,-85.16 290.88,-83.07 304.52,-58.36 307.19,-61.02 303.28,-64.94 
			320.74,-74.58 326.67,-80.5 		"/>
		<polygon class="st3" points="379.45,-76.11 388.83,-59.12 374.45,-67.06 371.37,-61.48 373.26,-63.37 376.67,-57.19 
			380.08,-51.01 373.9,-54.42 368.98,-57.14 368.35,-56 354.71,-31.29 363.1,-35.92 361.19,-36.98 363.96,-39.75 366.73,-42.51 
			368.67,-39 372.67,-41.21 368.59,-48.6 377.33,-43.78 379.42,-44.93 404.13,-58.57 401.47,-61.24 397.55,-57.33 387.91,-74.79 
			381.99,-80.72 		"/>
		<polygon class="st3" points="406.46,-62.96 397.08,-79.95 411.46,-72.02 414.53,-77.59 412.65,-75.7 409.24,-81.88 405.83,-88.06 
			412,-84.65 416.93,-81.93 417.56,-83.07 431.2,-107.78 422.8,-103.15 424.71,-102.1 421.94,-99.33 419.18,-96.56 417.24,-100.08 
			413.24,-97.87 417.32,-90.47 408.58,-95.3 406.49,-94.14 381.77,-80.5 384.44,-77.83 388.35,-81.75 397.99,-64.28 403.92,-58.36 
					"/>
		<polygon class="st3" points="399.53,-5.57 382.53,3.81 390.47,-10.57 384.9,-13.65 386.79,-11.76 380.61,-8.35 374.43,-4.94 
			377.84,-11.12 380.56,-16.05 379.42,-16.68 354.71,-30.32 359.34,-21.92 360.39,-23.83 363.16,-21.06 365.93,-18.3 362.41,-16.36 
			364.62,-12.35 372.02,-16.44 367.19,-7.7 368.35,-5.6 381.99,19.11 384.65,16.44 380.74,12.53 398.21,2.89 404.13,-3.03 		"/>
		<polygon class="st3" points="386.38,21.43 403.37,12.05 395.43,26.43 401,29.51 399.12,27.62 405.3,24.21 411.47,20.8 
			408.06,26.98 405.35,31.9 406.49,32.53 431.2,46.17 426.56,37.78 425.51,39.69 422.74,36.92 419.98,34.15 423.49,32.21 
			421.28,28.21 413.89,32.3 418.71,23.55 417.56,21.46 403.92,-3.25 401.25,-0.58 405.16,3.33 387.7,12.97 381.77,18.89 		"/>
	</g>
	<g class="st4">
		<polygon class="st3" points="686.87,47.17 693.97,22.55 699.99,43.38 708.06,41.05 704.54,41.05 707.12,32.1 709.71,23.16 
			712.29,32.1 714.35,39.24 716,38.76 751.8,28.43 739.64,24.92 740.44,27.68 735.27,27.68 730.1,27.68 731.57,22.59 725.78,20.92 
			722.68,31.63 719.03,18.97 716,18.09 680.2,7.76 680.2,12.74 687.5,12.74 680.2,38.04 680.2,49.1 		"/>
		<polygon class="st3" points="817.08,9.77 809.98,34.39 803.96,13.55 795.89,15.88 799.41,15.88 796.83,24.83 794.25,33.78 
			791.66,24.83 789.6,17.7 787.95,18.18 752.15,28.51 764.31,32.02 763.51,29.26 768.68,29.26 773.85,29.26 772.38,34.35 
			778.17,36.02 781.27,25.31 784.92,37.97 787.95,38.84 823.75,49.18 823.75,44.2 816.45,44.2 823.75,18.9 823.75,7.84 		"/>
		<polygon class="st3" points="733.27,-36.64 757.89,-29.53 737.06,-23.52 739.39,-15.45 739.39,-18.97 748.34,-16.38 757.29,-13.8 
			748.34,-11.22 741.21,-9.16 741.68,-7.51 752.02,28.29 755.53,16.13 752.76,16.93 752.76,11.76 752.76,6.6 757.85,8.07 
			759.53,2.27 748.81,-0.82 761.47,-4.48 762.35,-7.51 772.68,-43.31 767.71,-43.31 767.71,-36 742.4,-43.31 731.35,-43.31 		"/>
		<polygon class="st3" points="770.68,93.58 746.06,86.47 766.89,80.46 764.56,72.38 764.56,75.91 755.61,73.32 746.66,70.74 
			755.61,68.16 762.74,66.1 762.27,64.45 751.93,28.65 748.43,40.81 751.19,40.01 751.19,45.18 751.19,50.34 746.1,48.87 
			744.42,54.67 755.14,57.76 742.48,61.42 741.6,64.45 731.27,100.24 736.24,100.24 736.24,92.94 761.55,100.24 772.6,100.24 		"/>
		<polygon class="st3" points="735.57,58.1 729.38,46.88 738.87,52.12 740.9,48.45 739.65,49.69 737.4,45.61 735.15,41.53 
			739.23,43.79 742.48,45.58 742.89,44.83 751.9,28.52 746.36,31.58 747.62,32.27 745.79,34.1 743.96,35.92 742.68,33.6 
			740.04,35.06 742.74,39.94 736.97,36.76 735.59,37.52 719.28,46.52 721.04,48.28 723.62,45.7 729.98,57.23 733.89,61.14 		"/>
		<polygon class="st3" points="717.74,49.42 723.93,60.64 714.44,55.4 712.41,59.07 713.66,57.83 715.91,61.91 718.16,65.98 
			714.08,63.73 710.83,61.94 710.42,62.69 701.41,79 706.95,75.94 705.69,75.25 707.52,73.42 709.35,71.6 710.63,73.92 
			713.27,72.46 710.57,67.58 716.34,70.76 717.72,70 734.03,61 732.27,59.24 729.69,61.82 723.33,50.29 719.42,46.38 		"/>
		<polygon class="st3" points="722.31,11.54 733.53,5.35 728.29,14.84 731.97,16.87 730.73,15.63 734.8,13.38 738.88,11.13 
			736.63,15.21 734.84,18.46 735.59,18.87 751.9,27.87 748.84,22.33 748.14,23.59 746.32,21.77 744.49,19.94 746.81,18.66 
			745.35,16.02 740.47,18.71 743.66,12.94 742.89,11.56 733.89,-4.75 732.13,-2.99 734.71,-0.4 723.19,5.96 719.28,9.87 		"/>
		<polygon class="st3" points="731,-6.28 719.78,-0.09 725.02,-9.58 721.34,-11.61 722.59,-10.37 718.51,-8.11 714.43,-5.86 
			716.68,-9.94 718.48,-13.19 717.72,-13.61 701.41,-22.61 704.47,-17.07 705.17,-18.33 706.99,-16.5 708.82,-14.68 706.5,-13.4 
			707.96,-10.75 712.84,-13.45 709.65,-7.68 710.42,-6.3 719.42,10.01 721.18,8.25 718.6,5.67 730.13,-0.69 734.03,-4.6 		"/>
		<polygon class="st3" points="768.87,-1.71 775.06,9.51 765.57,4.27 763.54,7.95 764.79,6.7 767.04,10.78 769.29,14.86 
			765.21,12.61 761.96,10.81 761.54,11.56 752.54,27.87 758.08,24.82 756.82,24.12 758.65,22.29 760.48,20.47 761.76,22.79 
			764.4,21.33 761.7,16.45 767.47,19.63 768.85,18.87 785.16,9.87 783.4,8.11 780.82,10.69 774.46,-0.84 770.55,-4.75 		"/>
		<polygon class="st3" points="786.7,6.97 780.5,-4.24 790,1 792.03,-2.68 790.78,-1.44 788.53,-5.51 786.28,-9.59 790.36,-7.34 
			793.61,-5.55 794.02,-6.3 803.02,-22.61 797.49,-19.55 798.74,-18.86 796.92,-17.03 795.09,-15.2 793.81,-17.52 791.17,-16.07 
			793.86,-11.18 788.1,-14.37 786.71,-13.61 770.4,-4.6 772.16,-2.84 774.75,-5.43 781.11,6.1 785.02,10.01 		"/>
		<polygon class="st3" points="782.12,44.85 770.91,51.04 776.15,41.55 772.47,39.52 773.71,40.76 769.64,43.01 765.56,45.26 
			767.81,41.19 769.6,37.94 768.85,37.52 752.54,28.52 755.6,34.06 756.29,32.8 758.12,34.63 759.95,36.45 757.63,37.73 
			759.09,40.37 763.97,37.68 760.78,43.45 761.54,44.83 770.55,61.14 772.31,59.38 769.72,56.8 781.25,50.43 785.16,46.52 		"/>
		<polygon class="st3" points="773.44,62.67 784.66,56.48 779.42,65.97 783.1,68 781.85,66.76 785.93,64.51 790.01,62.26 
			787.76,66.33 785.96,69.58 786.71,70 803.02,79 799.97,73.46 799.27,74.72 797.45,72.89 795.62,71.07 797.94,69.79 796.48,67.15 
			791.6,69.84 794.78,64.07 794.02,62.69 785.02,46.38 783.26,48.14 785.84,50.72 774.31,57.09 770.4,61 		"/>
	</g>
	<g class="st4">
		<polygon class="st3" points="633.37,134.1 657.98,141.2 637.15,147.22 639.48,155.29 639.48,151.77 648.43,154.35 657.38,156.93 
			648.43,159.52 641.3,161.58 641.77,163.23 652.11,199.02 655.62,186.87 652.85,187.67 652.85,182.5 652.85,177.33 657.95,178.8 
			659.62,173.01 648.9,169.91 661.57,166.26 662.44,163.23 672.78,127.43 667.8,127.43 667.8,134.73 642.5,127.43 631.44,127.43 		
			"/>
		<polygon class="st3" points="670.77,264.31 646.15,257.21 666.98,251.19 664.65,243.12 664.65,246.64 655.7,244.06 646.75,241.47 
			655.7,238.89 662.84,236.83 662.36,235.18 652.03,199.38 648.52,211.54 651.28,210.74 651.28,215.91 651.28,221.08 646.19,219.61 
			644.52,225.4 655.23,228.5 642.57,232.15 641.69,235.18 631.36,270.98 636.34,270.98 636.34,263.67 661.64,270.98 672.7,270.98 		
			"/>
		<polygon class="st3" points="717.18,180.5 710.07,205.12 704.06,184.29 695.98,186.62 699.5,186.62 696.92,195.57 694.34,204.52 
			691.75,195.57 689.7,188.43 688.05,188.91 652.25,199.24 664.41,202.75 663.61,199.99 668.77,199.99 673.94,199.99 672.47,205.08 
			678.27,206.76 681.36,196.04 685.01,208.7 688.05,209.58 723.84,219.91 723.84,214.94 716.54,214.94 723.84,189.63 723.84,178.58 
					"/>
		<polygon class="st3" points="586.96,217.91 594.07,193.29 600.08,214.12 608.15,211.79 604.63,211.79 607.21,202.84 609.8,193.89 
			612.38,202.84 614.44,209.97 616.09,209.5 651.89,199.16 639.73,195.65 640.53,198.42 635.36,198.42 630.19,198.42 631.66,193.33 
			625.87,191.65 622.78,202.37 619.12,189.71 616.09,188.83 580.29,178.5 580.29,183.47 587.6,183.47 580.29,208.78 580.29,219.83 
					"/>
		<polygon class="st3" points="622.44,182.8 633.65,176.61 628.41,186.1 632.09,188.13 630.85,186.88 634.92,184.63 639,182.38 
			636.75,186.46 634.96,189.71 635.71,190.12 652.02,199.13 648.96,193.59 648.27,194.85 646.44,193.02 644.61,191.19 
			646.93,189.91 645.48,187.27 640.59,189.97 643.78,184.2 643.02,182.82 634.01,166.51 632.25,168.27 634.84,170.85 623.31,177.21 
			619.4,181.12 		"/>
		<polygon class="st3" points="631.12,164.97 619.9,171.16 625.14,161.67 621.46,159.64 622.71,160.89 618.63,163.14 614.55,165.39 
			616.8,161.31 618.6,158.06 617.85,157.65 601.54,148.64 604.59,154.18 605.29,152.92 607.11,154.75 608.94,156.58 606.62,157.86 
			608.08,160.5 612.96,157.8 609.78,163.57 610.54,164.95 619.54,181.26 621.3,179.5 618.72,176.92 630.25,170.56 634.16,166.65 		
			"/>
		<polygon class="st3" points="668.99,169.54 675.18,180.76 665.69,175.52 663.66,179.2 664.91,177.95 667.16,182.03 669.41,186.11 
			665.33,183.86 662.08,182.06 661.67,182.82 652.66,199.13 658.2,196.07 656.94,195.37 658.77,193.55 660.6,191.72 661.88,194.04 
			664.52,192.58 661.82,187.7 667.59,190.89 668.97,190.12 685.28,181.12 683.52,179.36 680.94,181.94 674.58,170.42 670.67,166.51 
					"/>
		<polygon class="st3" points="686.82,178.23 680.63,167.01 690.12,172.25 692.15,168.57 690.9,169.82 688.65,165.74 686.4,161.66 
			690.48,163.91 693.73,165.71 694.14,164.95 703.15,148.64 697.61,151.7 698.87,152.4 697.04,154.22 695.21,156.05 693.93,153.73 
			691.29,155.19 693.99,160.07 688.22,156.88 686.84,157.65 670.53,166.65 672.29,168.41 674.87,165.83 681.23,177.35 
			685.14,181.26 		"/>
		<polygon class="st3" points="682.25,216.1 671.03,222.29 676.27,212.8 672.59,210.77 673.83,212.01 669.76,214.27 665.68,216.52 
			667.93,212.44 669.72,209.19 668.97,208.77 652.66,199.77 655.72,205.31 656.42,204.05 658.24,205.88 660.07,207.7 657.75,208.98 
			659.21,211.63 664.09,208.93 660.9,214.7 661.67,216.08 670.67,232.39 672.43,230.63 669.85,228.05 681.37,221.69 685.28,217.78 
					"/>
		<polygon class="st3" points="673.56,233.92 684.78,227.73 679.54,237.22 683.22,239.25 681.97,238.01 686.05,235.76 
			690.13,233.51 687.88,237.59 686.08,240.84 686.84,241.25 703.15,250.25 700.09,244.71 699.39,245.97 697.57,244.15 
			695.74,242.32 698.06,241.04 696.6,238.4 691.72,241.09 694.91,235.32 694.14,233.94 685.14,217.63 683.38,219.39 685.96,221.98 
			674.43,228.34 670.53,232.25 		"/>
		<polygon class="st3" points="635.69,229.35 629.5,218.14 638.99,223.38 641.02,219.7 639.77,220.94 637.52,216.87 635.27,212.79 
			639.35,215.04 642.6,216.83 643.02,216.08 652.02,199.77 646.48,202.83 647.74,203.52 645.91,205.35 644.09,207.18 642.8,204.86 
			640.16,206.31 642.86,211.2 637.09,208.01 635.71,208.77 619.4,217.78 621.16,219.54 623.74,216.95 630.1,228.48 634.01,232.39 		
			"/>
		<polygon class="st3" points="617.86,220.67 624.06,231.89 614.56,226.65 612.53,230.33 613.78,229.08 616.03,233.16 
			618.28,237.24 614.2,234.99 610.95,233.19 610.54,233.94 601.54,250.25 607.07,247.2 605.82,246.5 607.64,244.67 609.47,242.85 
			610.75,245.17 613.39,243.71 610.7,238.83 616.46,242.01 617.85,241.25 634.16,232.25 632.4,230.49 629.81,233.07 623.45,221.54 
			619.54,217.63 		"/>
	</g>
	<g class="st4">
		<polygon class="st3" points="-87.13,223.17 -80.03,198.55 -74.01,219.38 -65.94,217.05 -69.46,217.05 -66.88,208.1 -64.29,199.16 
			-61.71,208.1 -59.65,215.24 -58,214.76 -22.2,204.43 -34.36,200.92 -33.56,203.68 -38.73,203.68 -43.9,203.68 -42.43,198.59 
			-48.22,196.92 -51.32,207.63 -54.97,194.97 -58,194.09 -93.8,183.76 -93.8,188.74 -86.5,188.74 -93.8,214.04 -93.8,225.1 		"/>
		<polygon class="st3" points="43.08,185.77 35.98,210.39 29.96,189.55 21.89,191.88 25.41,191.88 22.83,200.83 20.25,209.78 
			17.66,200.83 15.6,193.7 13.95,194.18 -21.85,204.51 -9.69,208.02 -10.49,205.26 -5.32,205.26 -0.15,205.26 -1.62,210.35 
			4.17,212.02 7.27,201.31 10.92,213.97 13.95,214.84 49.75,225.18 49.75,220.2 42.45,220.2 49.75,194.9 49.75,183.84 		"/>
		<polygon class="st3" points="-40.73,139.36 -16.11,146.47 -36.94,152.48 -34.61,160.55 -34.61,157.03 -25.66,159.62 -16.71,162.2 
			-25.66,164.78 -32.79,166.84 -32.32,168.49 -21.98,204.29 -18.47,192.13 -21.24,192.93 -21.24,187.76 -21.24,182.6 -16.15,184.07 
			-14.47,178.27 -25.19,175.18 -12.53,171.52 -11.65,168.49 -1.32,132.69 -6.29,132.69 -6.29,140 -31.6,132.69 -42.65,132.69 		"/>
		<polygon class="st3" points="-3.32,269.58 -27.94,262.47 -7.11,256.46 -9.44,248.38 -9.44,251.91 -18.39,249.32 -27.34,246.74 
			-18.39,244.16 -11.26,242.1 -11.73,240.45 -22.07,204.65 -25.57,216.81 -22.81,216.01 -22.81,221.18 -22.81,226.34 -27.9,224.87 
			-29.58,230.67 -18.86,233.76 -31.52,237.42 -32.4,240.45 -42.73,276.24 -37.76,276.24 -37.76,268.94 -12.45,276.24 -1.4,276.24 		
			"/>
		<polygon class="st3" points="-38.43,234.1 -44.62,222.88 -35.13,228.12 -33.1,224.45 -34.35,225.69 -36.6,221.61 -38.85,217.53 
			-34.77,219.79 -31.52,221.58 -31.11,220.83 -22.1,204.52 -27.64,207.58 -26.38,208.27 -28.21,210.1 -30.04,211.92 -31.32,209.6 
			-33.96,211.06 -31.26,215.94 -37.03,212.76 -38.41,213.52 -54.72,222.52 -52.96,224.28 -50.38,221.7 -44.02,233.23 -40.11,237.14 
					"/>
		<polygon class="st3" points="-56.26,225.42 -50.07,236.64 -59.56,231.4 -61.59,235.07 -60.34,233.83 -58.09,237.91 -55.84,241.98 
			-59.92,239.73 -63.17,237.94 -63.58,238.69 -72.59,255 -67.05,251.94 -68.31,251.25 -66.48,249.42 -64.65,247.6 -63.37,249.92 
			-60.73,248.46 -63.43,243.58 -57.66,246.76 -56.28,246 -39.97,237 -41.73,235.24 -44.31,237.82 -50.67,226.29 -54.58,222.38 		"/>
		<polygon class="st3" points="-51.69,187.54 -40.47,181.35 -45.71,190.84 -42.03,192.87 -43.27,191.63 -39.2,189.38 -35.12,187.13 
			-37.37,191.21 -39.16,194.46 -38.41,194.87 -22.1,203.87 -25.16,198.33 -25.86,199.59 -27.68,197.77 -29.51,195.94 -27.19,194.66 
			-28.65,192.02 -33.53,194.71 -30.34,188.94 -31.11,187.56 -40.11,171.25 -41.87,173.01 -39.29,175.6 -50.81,181.96 -54.72,185.87 
					"/>
		<polygon class="st3" points="-43,169.72 -54.22,175.91 -48.98,166.42 -52.66,164.39 -51.41,165.63 -55.49,167.89 -59.57,170.14 
			-57.32,166.06 -55.52,162.81 -56.28,162.39 -72.59,153.39 -69.53,158.93 -68.83,157.67 -67.01,159.5 -65.18,161.32 -67.5,162.6 
			-66.04,165.25 -61.16,162.55 -64.35,168.32 -63.58,169.7 -54.58,186.01 -52.82,184.25 -55.4,181.67 -43.87,175.31 -39.97,171.4 		
			"/>
		<polygon class="st3" points="-5.13,174.29 1.06,185.51 -8.43,180.27 -10.46,183.95 -9.21,182.7 -6.96,186.78 -4.71,190.86 
			-8.79,188.61 -12.04,186.81 -12.46,187.56 -21.46,203.87 -15.92,200.82 -17.18,200.12 -15.35,198.29 -13.52,196.47 -12.24,198.79 
			-9.6,197.33 -12.3,192.45 -6.53,195.63 -5.15,194.87 11.16,185.87 9.4,184.11 6.82,186.69 0.46,175.16 -3.45,171.25 		"/>
		<polygon class="st3" points="12.7,182.97 6.5,171.76 16,177 18.03,173.32 16.78,174.56 14.53,170.49 12.28,166.41 16.36,168.66 
			19.61,170.45 20.02,169.7 29.02,153.39 23.49,156.45 24.74,157.14 22.92,158.97 21.09,160.8 19.81,158.48 17.17,159.93 
			19.86,164.82 14.1,161.63 12.71,162.39 -3.6,171.4 -1.84,173.16 0.75,170.57 7.11,182.1 11.02,186.01 		"/>
		<polygon class="st3" points="8.12,220.85 -3.09,227.04 2.15,217.55 -1.53,215.52 -0.29,216.76 -4.36,219.01 -8.44,221.26 
			-6.19,217.19 -4.4,213.94 -5.15,213.52 -21.46,204.52 -18.4,210.06 -17.71,208.8 -15.88,210.63 -14.05,212.45 -16.37,213.73 
			-14.91,216.37 -10.03,213.68 -13.22,219.45 -12.46,220.83 -3.45,237.14 -1.69,235.38 -4.28,232.8 7.25,226.43 11.16,222.52 		"/>
		<polygon class="st3" points="-0.56,238.67 10.66,232.48 5.42,241.97 9.1,244 7.85,242.76 11.93,240.51 16.01,238.26 13.76,242.33 
			11.96,245.58 12.71,246 29.02,255 25.97,249.46 25.27,250.72 23.45,248.89 21.62,247.07 23.94,245.79 22.48,243.15 17.6,245.84 
			20.78,240.07 20.02,238.69 11.02,222.38 9.26,224.14 11.84,226.72 0.31,233.09 -3.6,237 		"/>
	</g>
	<g class="st5">
		<polygon class="st3" points="580.71,7.68 593.1,30.11 574.11,19.63 570.05,26.99 572.54,24.5 577.04,32.65 581.55,40.81 
			573.39,36.31 566.89,32.72 566.06,34.22 548.05,66.84 559.13,60.73 556.61,59.34 560.27,55.68 563.92,52.03 566.48,56.67 
			571.76,53.75 566.37,43.99 577.91,50.36 580.67,48.84 613.29,30.83 609.78,27.31 604.61,32.48 591.88,9.42 584.07,1.6 		"/>
		<polygon class="st3" points="515.09,126.2 502.7,103.77 521.69,114.25 525.75,106.89 523.26,109.38 518.75,101.23 514.25,93.07 
			522.41,97.57 528.91,101.16 529.74,99.66 547.74,67.04 536.67,73.15 539.18,74.54 535.53,78.2 531.88,81.85 529.32,77.21 
			524.03,80.12 529.42,89.89 517.89,83.52 515.12,85.04 482.5,103.05 486.02,106.57 491.19,101.4 503.91,124.46 511.73,132.28 		"/>
		<polygon class="st3" points="607.16,99.75 584.73,112.14 595.21,93.15 587.85,89.09 590.34,91.58 582.19,96.08 574.03,100.59 
			578.53,92.43 582.12,85.93 580.62,85.1 548,67.09 554.11,78.17 555.5,75.66 559.16,79.31 562.81,82.96 558.17,85.52 561.08,90.8 
			570.85,85.41 564.48,96.95 566,99.71 584.01,132.33 587.53,128.82 582.36,123.65 605.42,110.92 613.24,103.11 		"/>
		<polygon class="st3" points="488.64,34.13 511.07,21.74 500.59,40.73 507.95,44.79 505.46,42.3 513.61,37.79 521.77,33.29 
			517.27,41.45 513.68,47.95 515.18,48.78 547.8,66.78 541.69,55.71 540.3,58.22 536.64,54.57 532.99,50.92 537.63,48.36 
			534.71,43.07 524.95,48.46 531.32,36.93 529.8,34.16 511.79,1.54 508.27,5.06 513.44,10.23 490.38,22.96 482.56,30.77 		"/>
		<polygon class="st3" points="538.55,34.38 550.86,37.94 540.44,40.95 541.61,44.98 541.61,43.22 546.08,44.51 550.56,45.8 
			546.08,47.1 542.51,48.13 542.75,48.95 547.92,66.85 549.67,60.77 548.29,61.17 548.29,58.59 548.29,56 550.84,56.74 
			551.67,53.84 546.32,52.29 552.65,50.47 553.09,48.95 558.25,31.05 555.77,31.05 555.77,34.7 543.11,31.05 537.59,31.05 		"/>
		<polygon class="st3" points="557.29,27.92 544.98,24.37 555.4,21.36 554.23,17.32 554.23,19.08 549.76,17.79 545.28,16.5 
			549.76,15.21 553.32,14.18 553.09,13.35 547.92,-4.54 546.16,1.53 547.55,1.14 547.55,3.72 547.55,6.3 545,5.57 544.16,8.46 
			549.52,10.01 543.19,11.84 542.75,13.35 537.59,31.25 540.07,31.25 540.07,27.6 552.73,31.25 558.25,31.25 		"/>
		<polygon class="st3" points="580.84,57.93 577.29,70.24 574.28,59.83 570.24,60.99 572,60.99 570.71,65.47 569.42,69.94 
			568.13,65.47 567.1,61.9 566.27,62.14 548.37,67.3 554.45,69.06 554.05,67.68 556.64,67.68 559.22,67.68 558.49,70.22 
			561.38,71.06 562.93,65.7 564.76,72.03 566.27,72.47 584.17,77.64 584.17,75.15 580.52,75.15 584.17,62.5 584.17,56.97 		"/>
		<polygon class="st3" points="587.3,76.68 590.86,64.37 593.86,74.78 597.9,73.62 596.14,73.62 597.43,69.14 598.72,64.67 
			600.02,69.14 601.05,72.71 601.87,72.47 619.77,67.3 613.69,65.55 614.09,66.93 611.51,66.93 608.92,66.93 609.66,64.39 
			606.76,63.55 605.21,68.91 603.39,62.58 601.87,62.14 583.97,56.97 583.97,59.46 587.62,59.46 583.97,72.11 583.97,77.64 		"/>
		<polygon class="st3" points="557.29,100.22 544.98,96.67 555.4,93.66 554.23,89.63 554.23,91.39 549.76,90.1 545.28,88.81 
			549.76,87.51 553.32,86.48 553.09,85.66 547.92,67.76 546.16,73.84 547.55,73.44 547.55,76.02 547.55,78.61 545,77.87 
			544.16,80.77 549.52,82.32 543.19,84.14 542.75,85.66 537.59,103.56 540.07,103.56 540.07,99.91 552.73,103.56 558.25,103.56 		
			"/>
		<polygon class="st3" points="538.55,106.69 550.86,110.24 540.44,113.25 541.61,117.29 541.61,115.53 546.08,116.82 
			550.56,118.11 546.08,119.4 542.51,120.43 542.75,121.26 547.92,139.15 549.67,133.08 548.29,133.47 548.29,130.89 548.29,128.31 
			550.84,129.04 551.67,126.15 546.32,124.6 552.65,122.77 553.09,121.26 558.25,103.36 555.77,103.36 555.77,107.01 543.11,103.36 
			537.59,103.36 		"/>
		<polygon class="st3" points="515,76.68 518.55,64.37 521.56,74.78 525.6,73.62 523.84,73.62 525.13,69.14 526.42,64.67 
			527.71,69.14 528.74,72.71 529.57,72.47 547.46,67.3 541.39,65.55 541.78,66.93 539.2,66.93 536.62,66.93 537.35,64.39 
			534.45,63.55 532.91,68.91 531.08,62.58 529.57,62.14 511.67,56.97 511.67,59.46 515.32,59.46 511.67,72.11 511.67,77.64 		"/>
		<polygon class="st3" points="508.53,57.93 504.98,70.24 501.97,59.83 497.94,60.99 499.7,60.99 498.41,65.47 497.12,69.94 
			495.82,65.47 494.79,61.9 493.97,62.14 476.07,67.3 482.15,69.06 481.75,67.68 484.33,67.68 486.92,67.68 486.18,70.22 
			489.08,71.06 490.63,65.7 492.45,72.03 493.97,72.47 511.87,77.64 511.87,75.15 508.22,75.15 511.87,62.5 511.87,56.97 		"/>
	</g>
	<g class="st5">
		<polygon class="st3" points="43.83,-34.45 36.73,-9.83 30.71,-30.66 22.64,-28.33 26.16,-28.33 23.58,-19.38 20.99,-10.43 
			18.41,-19.38 16.35,-26.52 14.7,-26.04 -21.1,-15.71 -8.94,-12.2 -9.74,-14.96 -4.57,-14.96 0.6,-14.96 -0.87,-9.87 4.92,-8.2 
			8.02,-18.91 11.67,-6.25 14.7,-5.37 50.5,4.96 50.5,-0.02 43.19,-0.02 50.5,-25.32 50.5,-36.38 		"/>
		<polygon class="st3" points="-86.38,2.96 -79.28,-21.66 -73.26,-0.83 -65.19,-3.16 -68.71,-3.16 -66.13,-12.11 -63.55,-21.06 
			-60.96,-12.11 -58.9,-4.98 -57.25,-5.45 -21.46,-15.79 -33.61,-19.3 -32.82,-16.53 -37.98,-16.53 -43.15,-16.53 -41.68,-21.63 
			-47.47,-23.3 -50.57,-12.58 -54.22,-25.25 -57.25,-26.12 -93.05,-36.46 -93.05,-31.48 -85.75,-31.48 -93.05,-6.18 -93.05,4.88 		
			"/>
		<polygon class="st3" points="-2.57,49.36 -27.19,42.25 -6.36,36.24 -8.69,28.17 -8.69,31.69 -17.64,29.11 -26.59,26.52 
			-17.64,23.94 -10.51,21.88 -10.98,20.23 -21.32,-15.57 -24.83,-3.41 -22.06,-4.21 -22.06,0.96 -22.06,6.13 -27.15,4.66 
			-28.83,10.45 -18.11,13.54 -30.78,17.2 -31.65,20.23 -41.98,56.03 -37.01,56.03 -37.01,48.72 -11.7,56.03 -0.65,56.03 		"/>
		<polygon class="st3" points="-39.98,-80.86 -15.36,-73.75 -36.19,-67.74 -33.86,-59.66 -33.86,-63.18 -24.91,-60.6 -15.96,-58.02 
			-24.91,-55.43 -32.05,-53.37 -31.57,-51.73 -21.24,-15.93 -17.73,-28.08 -20.49,-27.29 -20.49,-32.45 -20.49,-37.62 -15.4,-36.15 
			-13.73,-41.95 -24.44,-45.04 -11.78,-48.69 -10.9,-51.73 -0.57,-87.52 -5.54,-87.52 -5.54,-80.22 -30.85,-87.52 -41.9,-87.52 		
			"/>
		<polygon class="st3" points="-4.87,-45.38 1.32,-34.16 -8.17,-39.4 -10.2,-35.72 -8.95,-36.97 -6.7,-32.89 -4.45,-28.81 
			-8.53,-31.06 -11.78,-32.86 -12.2,-32.11 -21.2,-15.8 -15.66,-18.85 -16.92,-19.55 -15.09,-21.38 -13.26,-23.2 -11.98,-20.88 
			-9.34,-22.34 -12.04,-27.22 -6.27,-24.04 -4.89,-24.8 11.42,-33.8 9.66,-35.56 7.08,-32.98 0.72,-44.51 -3.19,-48.42 		"/>
		<polygon class="st3" points="12.96,-36.7 6.76,-47.91 16.26,-42.68 18.29,-46.35 17.04,-45.11 14.79,-49.19 12.54,-53.26 
			16.62,-51.01 19.87,-49.22 20.28,-49.97 29.28,-66.28 23.75,-63.22 25,-62.53 23.18,-60.7 21.35,-58.87 20.07,-61.19 
			17.43,-59.74 20.12,-54.86 14.36,-58.04 12.97,-57.28 -3.34,-48.27 -1.58,-46.52 1.01,-49.1 7.37,-37.57 11.28,-33.66 		"/>
		<polygon class="st3" points="8.38,1.18 -2.83,7.37 2.41,-2.12 -1.27,-4.15 -0.03,-2.91 -4.1,-0.66 -8.18,1.59 -5.93,-2.48 
			-4.14,-5.74 -4.89,-6.15 -21.2,-15.15 -18.14,-9.61 -17.45,-10.87 -15.62,-9.05 -13.79,-7.22 -16.11,-5.94 -14.65,-3.3 
			-9.77,-5.99 -12.96,-0.22 -12.2,1.16 -3.19,17.47 -1.43,15.71 -4.02,13.12 7.51,6.76 11.42,2.85 		"/>
		<polygon class="st3" points="-0.3,19 10.92,12.81 5.68,22.3 9.36,24.33 8.11,23.09 12.19,20.84 16.27,18.58 14.02,22.66 
			12.22,25.91 12.97,26.33 29.28,35.33 26.23,29.79 25.53,31.05 23.71,29.22 21.88,27.4 24.2,26.12 22.74,23.48 17.86,26.17 
			21.04,20.4 20.28,19.02 11.28,2.71 9.52,4.47 12.1,7.05 0.57,13.42 -3.34,17.32 		"/>
		<polygon class="st3" points="-38.17,14.43 -44.36,3.21 -34.87,8.45 -32.84,4.77 -34.09,6.02 -36.34,1.94 -38.59,-2.14 
			-34.51,0.11 -31.26,1.91 -30.85,1.16 -21.84,-15.15 -27.38,-12.1 -26.12,-11.4 -27.95,-9.57 -29.78,-7.75 -31.06,-10.07 
			-33.7,-8.61 -31,-3.73 -36.77,-6.91 -38.15,-6.15 -54.46,2.85 -52.7,4.61 -50.12,2.03 -43.76,13.56 -39.85,17.47 		"/>
		<polygon class="st3" points="-56,5.75 -49.81,16.96 -59.3,11.73 -61.33,15.4 -60.08,14.16 -57.83,18.24 -55.58,22.31 
			-59.66,20.06 -62.91,18.27 -63.32,19.02 -72.33,35.33 -66.79,32.27 -68.05,31.58 -66.22,29.75 -64.39,27.92 -63.11,30.24 
			-60.47,28.79 -63.17,23.91 -57.4,27.09 -56.02,26.33 -39.71,17.32 -41.47,15.57 -44.05,18.15 -50.41,6.62 -54.32,2.71 		"/>
		<polygon class="st3" points="-51.43,-32.13 -40.21,-38.32 -45.45,-28.83 -41.77,-26.8 -43.01,-28.04 -38.94,-30.29 -34.86,-32.54 
			-37.11,-28.47 -38.9,-25.21 -38.15,-24.8 -21.84,-15.8 -24.9,-21.34 -25.6,-20.08 -27.42,-21.9 -29.25,-23.73 -26.93,-25.01 
			-28.39,-27.65 -33.27,-24.96 -30.08,-30.73 -30.85,-32.11 -39.85,-48.42 -41.61,-46.66 -39.03,-44.08 -50.55,-37.71 -54.46,-33.8 
					"/>
		<polygon class="st3" points="-42.74,-49.95 -53.96,-43.76 -48.72,-53.25 -52.4,-55.28 -51.15,-54.04 -55.23,-51.79 -59.31,-49.53 
			-57.06,-53.61 -55.26,-56.86 -56.02,-57.28 -72.33,-66.28 -69.27,-60.74 -68.57,-62 -66.75,-60.17 -64.92,-58.35 -67.24,-57.07 
			-65.78,-54.43 -60.9,-57.12 -64.09,-51.35 -63.32,-49.97 -54.32,-33.66 -52.56,-35.42 -55.14,-38 -43.61,-44.37 -39.71,-48.27 		
			"/>
	</g>
	<g class="st5">
		<polygon class="st3" points="255.93,216.06 251.24,232.31 247.27,218.56 241.95,220.1 244.27,220.1 242.56,226.01 240.86,231.91 
			239.15,226.01 237.79,221.3 236.71,221.61 213.08,228.43 221.1,230.75 220.58,228.92 223.99,228.92 227.4,228.92 226.43,232.28 
			230.25,233.39 232.29,226.32 234.71,234.67 236.71,235.25 260.33,242.07 260.33,238.79 255.51,238.79 260.33,222.09 
			260.33,214.79 		"/>
		<polygon class="st3" points="169.99,240.75 174.68,224.5 178.65,238.25 183.98,236.71 181.65,236.71 183.36,230.8 185.06,224.9 
			186.77,230.8 188.13,235.51 189.22,235.2 212.84,228.38 204.82,226.06 205.34,227.89 201.93,227.89 198.52,227.89 199.49,224.53 
			195.67,223.42 193.63,230.49 191.22,222.14 189.22,221.56 165.59,214.74 165.59,218.02 170.41,218.02 165.59,234.72 
			165.59,242.02 		"/>
		<polygon class="st3" points="225.3,271.38 209.06,266.69 222.8,262.72 221.27,257.39 221.27,259.71 215.36,258.01 209.45,256.3 
			215.36,254.6 220.07,253.24 219.75,252.15 212.93,228.52 210.62,236.55 212.44,236.02 212.44,239.43 212.44,242.84 209.08,241.87 
			207.98,245.7 215.05,247.74 206.69,250.15 206.11,252.15 199.29,275.78 202.58,275.78 202.58,270.96 219.28,275.78 226.57,275.78 
					"/>
		<polygon class="st3" points="200.62,185.43 216.87,190.12 203.12,194.09 204.65,199.42 204.65,197.1 210.56,198.8 216.47,200.51 
			210.56,202.21 205.85,203.57 206.17,204.66 212.99,228.29 215.3,220.26 213.48,220.79 213.48,217.38 213.48,213.97 216.84,214.94 
			217.94,211.11 210.87,209.07 219.23,206.66 219.81,204.66 226.63,181.03 223.34,181.03 223.34,185.85 206.64,181.03 
			199.35,181.03 		"/>
		<polygon class="st3" points="223.79,208.85 227.88,216.25 221.61,212.79 220.27,215.22 221.09,214.4 222.58,217.09 224.06,219.78 
			221.37,218.3 219.23,217.11 218.95,217.61 213.01,228.37 216.67,226.35 215.84,225.9 217.04,224.69 218.25,223.48 219.09,225.02 
			220.84,224.05 219.06,220.83 222.87,222.93 223.78,222.43 234.54,216.49 233.38,215.33 231.68,217.03 227.48,209.42 224.9,206.84 
					"/>
		<polygon class="st3" points="235.55,214.58 231.47,207.17 237.73,210.63 239.07,208.21 238.25,209.03 236.76,206.34 
			235.28,203.64 237.97,205.13 240.12,206.31 240.39,205.82 246.33,195.05 242.68,197.07 243.51,197.53 242.3,198.74 241.09,199.94 
			240.25,198.41 238.51,199.37 240.29,202.59 236.48,200.49 235.57,201 224.8,206.94 225.96,208.1 227.67,206.39 231.87,214 
			234.45,216.58 		"/>
		<polygon class="st3" points="232.54,239.57 225.13,243.66 228.59,237.4 226.16,236.06 226.99,236.88 224.29,238.36 221.6,239.85 
			223.09,237.16 224.27,235.01 223.78,234.74 213.01,228.8 215.03,232.45 215.49,231.62 216.69,232.83 217.9,234.03 216.37,234.88 
			217.33,236.62 220.55,234.84 218.45,238.65 218.95,239.56 224.9,250.33 226.06,249.17 224.35,247.46 231.96,243.26 234.54,240.68 
					"/>
		<polygon class="st3" points="226.81,251.34 234.21,247.25 230.75,253.52 233.18,254.86 232.36,254.04 235.05,252.55 
			237.74,251.06 236.25,253.76 235.07,255.9 235.57,256.17 246.33,262.12 244.31,258.46 243.85,259.29 242.65,258.09 241.44,256.88 
			242.97,256.04 242.01,254.29 238.79,256.07 240.89,252.26 240.39,251.35 234.45,240.59 233.29,241.75 234.99,243.45 
			227.38,247.65 224.8,250.23 		"/>
		<polygon class="st3" points="201.81,248.32 197.72,240.92 203.99,244.38 205.33,241.95 204.51,242.77 203.02,240.08 
			201.53,237.39 204.23,238.87 206.37,240.06 206.65,239.56 212.59,228.8 208.93,230.82 209.76,231.27 208.56,232.48 207.35,233.69 
			206.51,232.15 204.76,233.12 206.54,236.34 202.73,234.24 201.82,234.74 191.06,240.68 192.22,241.84 193.92,240.14 
			198.12,247.75 200.7,250.33 		"/>
		<polygon class="st3" points="190.05,242.59 194.13,250 187.87,246.54 186.53,248.96 187.35,248.14 188.83,250.83 190.32,253.53 
			187.63,252.04 185.48,250.86 185.21,251.35 179.27,262.12 182.92,260.1 182.09,259.64 183.3,258.43 184.5,257.23 185.35,258.76 
			187.09,257.8 185.31,254.58 189.12,256.68 190.03,256.17 200.8,250.23 199.64,249.07 197.93,250.78 193.73,243.17 191.15,240.59 
					"/>
		<polygon class="st3" points="193.06,217.6 200.47,213.51 197.01,219.77 199.44,221.11 198.61,220.29 201.3,218.81 204,217.32 
			202.51,220.01 201.33,222.16 201.82,222.43 212.59,228.37 210.57,224.72 210.11,225.55 208.9,224.34 207.7,223.14 209.23,222.29 
			208.27,220.55 205.05,222.33 207.15,218.52 206.65,217.61 200.7,206.84 199.54,208 201.25,209.71 193.64,213.91 191.06,216.49 		
			"/>
		<polygon class="st3" points="198.79,205.83 191.39,209.92 194.85,203.65 192.42,202.31 193.24,203.13 190.55,204.62 
			187.86,206.11 189.34,203.41 190.53,201.27 190.03,201 179.27,195.05 181.29,198.71 181.74,197.88 182.95,199.08 184.16,200.29 
			182.62,201.13 183.59,202.88 186.81,201.1 184.71,204.91 185.21,205.82 191.15,216.58 192.31,215.42 190.61,213.72 198.22,209.52 
			200.8,206.94 		"/>
	</g>
	<g class="st6">
		<polygon class="st3" points="298.24,162.69 281.99,158 295.74,154.03 294.21,148.7 294.21,151.03 288.3,149.32 282.39,147.62 
			288.3,145.91 293.01,144.55 292.69,143.46 285.87,119.84 283.56,127.86 285.38,127.34 285.38,130.75 285.38,134.16 282.02,133.19 
			280.92,137.01 287.99,139.05 279.63,141.46 279.05,143.46 272.23,167.09 275.52,167.09 275.52,162.27 292.22,167.09 
			299.51,167.09 		"/>
		<polygon class="st3" points="273.56,76.75 289.8,81.44 276.06,85.41 277.59,90.73 277.59,88.41 283.5,90.12 289.41,91.82 
			283.5,93.53 278.79,94.89 279.11,95.97 285.93,119.6 288.24,111.58 286.42,112.1 286.42,108.69 286.42,105.28 289.78,106.25 
			290.88,102.43 283.81,100.39 292.17,97.97 292.75,95.97 299.57,72.35 296.28,72.35 296.28,77.17 279.58,72.35 272.29,72.35 		"/>
		<polygon class="st3" points="242.93,132.06 247.62,115.81 251.59,129.56 256.91,128.03 254.59,128.03 256.3,122.12 258,116.21 
			259.71,122.12 261.07,126.83 262.15,126.51 285.78,119.69 277.76,117.38 278.28,119.2 274.87,119.2 271.46,119.2 272.43,115.84 
			268.61,114.74 266.57,121.81 264.15,113.45 262.15,112.87 238.53,106.05 238.53,109.34 243.35,109.34 238.53,126.04 
			238.53,133.33 		"/>
		<polygon class="st3" points="328.87,107.38 324.18,123.62 320.21,109.88 314.88,111.41 317.21,111.41 315.5,117.32 313.8,123.23 
			312.09,117.32 310.73,112.61 309.64,112.93 286.02,119.75 294.04,122.06 293.52,120.24 296.93,120.24 300.34,120.24 299.37,123.6 
			303.19,124.7 305.23,117.63 307.64,125.99 309.64,126.57 333.27,133.39 333.27,130.1 328.45,130.1 333.27,113.4 333.27,106.11 		
			"/>
		<polygon class="st3" points="305.46,130.55 298.05,134.63 301.51,128.37 299.08,127.03 299.91,127.85 297.21,129.34 
			294.52,130.82 296.01,128.13 297.19,125.99 296.7,125.71 285.93,119.77 287.95,123.43 288.41,122.6 289.61,123.8 290.82,125.01 
			289.29,125.85 290.25,127.59 293.47,125.82 291.37,129.62 291.87,130.54 297.82,141.3 298.98,140.14 297.27,138.43 304.88,134.23 
			307.46,131.65 		"/>
		<polygon class="st3" points="299.73,142.31 307.13,138.23 303.67,144.49 306.1,145.83 305.28,145.01 307.97,143.52 310.66,142.04 
			309.17,144.73 307.99,146.87 308.49,147.15 319.25,153.09 317.23,149.43 316.77,150.26 315.57,149.06 314.36,147.85 
			315.89,147.01 314.93,145.27 311.71,147.04 313.81,143.24 313.31,142.33 307.37,131.56 306.21,132.72 307.91,134.43 300.3,138.63 
			297.72,141.21 		"/>
		<polygon class="st3" points="274.73,139.3 270.64,131.89 276.91,135.35 278.25,132.92 277.43,133.74 275.94,131.05 274.45,128.36 
			277.15,129.85 279.29,131.03 279.56,130.54 285.51,119.77 281.85,121.79 282.68,122.25 281.48,123.45 280.27,124.66 
			279.43,123.13 277.68,124.09 279.46,127.31 275.65,125.21 274.74,125.71 263.98,131.65 265.14,132.82 266.84,131.11 
			271.04,138.72 273.62,141.3 		"/>
		<polygon class="st3" points="262.97,133.57 267.05,140.97 260.79,137.51 259.45,139.94 260.27,139.12 261.75,141.81 263.24,144.5 
			260.55,143.01 258.4,141.83 258.13,142.33 252.19,153.09 255.84,151.07 255.01,150.61 256.22,149.41 257.42,148.2 258.27,149.73 
			260.01,148.77 258.23,145.55 262.04,147.65 262.95,147.15 273.72,141.21 272.56,140.04 270.85,141.75 266.65,134.14 
			264.07,131.56 		"/>
		<polygon class="st3" points="265.98,108.57 273.39,104.48 269.93,110.75 272.36,112.09 271.53,111.26 274.22,109.78 
			276.92,108.29 275.43,110.98 274.25,113.13 274.74,113.4 285.51,119.35 283.49,115.69 283.03,116.52 281.82,115.32 280.62,114.11 
			282.15,113.26 281.19,111.52 277.97,113.3 280.07,109.49 279.56,108.58 273.62,97.82 272.46,98.98 274.17,100.68 266.56,104.88 
			263.98,107.46 		"/>
		<polygon class="st3" points="271.71,96.8 264.31,100.89 267.77,94.63 265.34,93.29 266.16,94.11 263.47,95.59 260.78,97.08 
			262.26,94.39 263.45,92.24 262.95,91.97 252.19,86.03 254.21,89.68 254.66,88.85 255.87,90.06 257.08,91.26 255.54,92.11 
			256.51,93.85 259.73,92.07 257.63,95.88 258.13,96.79 264.07,107.56 265.23,106.39 263.53,104.69 271.14,100.49 273.72,97.91 		
			"/>
		<polygon class="st3" points="296.71,99.82 300.8,107.22 294.53,103.77 293.19,106.19 294.01,105.37 295.5,108.06 296.98,110.75 
			294.29,109.27 292.15,108.08 291.87,108.58 285.93,119.35 289.59,117.33 288.76,116.87 289.96,115.66 291.17,114.46 
			292.01,115.99 293.76,115.03 291.98,111.81 295.79,113.91 296.7,113.4 307.46,107.46 306.3,106.3 304.6,108.01 300.4,100.4 
			297.82,97.82 		"/>
		<polygon class="st3" points="308.47,105.55 304.39,98.15 310.65,101.61 311.99,99.18 311.17,100 309.68,97.31 308.2,94.62 
			310.89,96.1 313.04,97.29 313.31,96.79 319.25,86.03 315.6,88.04 316.43,88.5 315.22,89.71 314.01,90.91 313.17,89.38 
			311.43,90.35 313.21,93.57 309.4,91.47 308.49,91.97 297.72,97.91 298.88,99.07 300.59,97.37 304.79,104.98 307.37,107.56 		"/>
	</g>
	<g class="st5">
		<polygon class="st3" points="807.77,142.9 803.08,159.15 799.11,145.4 793.79,146.94 796.11,146.94 794.4,152.85 792.7,158.75 
			790.99,152.85 789.63,148.14 788.55,148.45 764.92,155.27 772.94,157.59 772.42,155.76 775.83,155.76 779.24,155.76 
			778.27,159.12 782.09,160.23 784.13,153.16 786.55,161.51 788.55,162.09 812.17,168.91 812.17,165.63 807.35,165.63 
			812.17,148.93 812.17,141.63 		"/>
		<polygon class="st3" points="721.83,167.59 726.52,151.34 730.49,165.09 735.82,163.55 733.49,163.55 735.2,157.64 736.9,151.74 
			738.61,157.64 739.97,162.35 741.06,162.04 764.68,155.22 756.66,152.9 757.18,154.73 753.77,154.73 750.36,154.73 751.33,151.37 
			747.51,150.26 745.47,157.33 743.06,148.98 741.06,148.4 717.43,141.58 717.43,144.86 722.25,144.86 717.43,161.56 717.43,168.86 
					"/>
		<polygon class="st3" points="777.14,198.22 760.9,193.53 774.64,189.56 773.11,184.23 773.11,186.55 767.2,184.85 761.29,183.14 
			767.2,181.44 771.91,180.08 771.59,178.99 764.77,155.36 762.46,163.39 764.28,162.86 764.28,166.27 764.28,169.68 760.92,168.71 
			759.82,172.54 766.89,174.58 758.53,176.99 757.95,178.99 751.13,202.62 754.42,202.62 754.42,197.8 771.12,202.62 778.41,202.62 
					"/>
		<polygon class="st3" points="752.46,112.27 768.71,116.96 754.96,120.93 756.49,126.26 756.49,123.94 762.4,125.64 768.31,127.35 
			762.4,129.05 757.69,130.41 758.01,131.5 764.83,155.13 767.14,147.1 765.32,147.63 765.32,144.22 765.32,140.81 768.68,141.78 
			769.78,137.95 762.71,135.91 771.07,133.5 771.65,131.5 778.47,107.87 775.18,107.87 775.18,112.69 758.48,107.87 751.19,107.87 
					"/>
		<polygon class="st3" points="775.63,135.69 779.72,143.09 773.45,139.63 772.11,142.06 772.93,141.24 774.42,143.93 775.9,146.62 
			773.21,145.14 771.07,143.95 770.79,144.45 764.85,155.21 768.51,153.19 767.68,152.74 768.88,151.53 770.09,150.32 
			770.93,151.86 772.68,150.89 770.9,147.67 774.71,149.77 775.62,149.27 786.38,143.33 785.22,142.17 783.52,143.87 779.32,136.26 
			776.74,133.68 		"/>
		<polygon class="st3" points="787.39,141.42 783.31,134.01 789.57,137.47 790.91,135.05 790.09,135.87 788.6,133.18 787.12,130.48 
			789.81,131.97 791.96,133.15 792.23,132.66 798.17,121.89 794.52,123.91 795.35,124.37 794.14,125.58 792.93,126.78 
			792.09,125.25 790.35,126.21 792.13,129.43 788.32,127.33 787.41,127.84 776.64,133.78 777.8,134.94 779.51,133.23 783.71,140.84 
			786.29,143.42 		"/>
		<polygon class="st3" points="784.38,166.41 776.97,170.5 780.43,164.24 778,162.9 778.83,163.72 776.13,165.2 773.44,166.69 
			774.93,164 776.11,161.85 775.62,161.58 764.85,155.64 766.87,159.29 767.33,158.46 768.53,159.67 769.74,160.87 768.21,161.72 
			769.17,163.46 772.39,161.68 770.29,165.49 770.79,166.4 776.74,177.17 777.9,176.01 776.19,174.3 783.8,170.1 786.38,167.52 		
			"/>
		<polygon class="st3" points="778.65,178.18 786.05,174.09 782.59,180.36 785.02,181.7 784.2,180.88 786.89,179.39 789.58,177.9 
			788.09,180.6 786.91,182.74 787.41,183.01 798.17,188.96 796.15,185.3 795.69,186.13 794.49,184.93 793.28,183.72 794.81,182.88 
			793.85,181.13 790.63,182.91 792.73,179.1 792.23,178.19 786.29,167.43 785.13,168.59 786.83,170.29 779.22,174.49 776.64,177.07 
					"/>
		<polygon class="st3" points="753.65,175.16 749.56,167.76 755.83,171.22 757.17,168.79 756.35,169.61 754.86,166.92 
			753.37,164.23 756.07,165.71 758.21,166.9 758.48,166.4 764.43,155.64 760.77,157.66 761.6,158.11 760.4,159.32 759.19,160.53 
			758.35,158.99 756.6,159.96 758.38,163.18 754.57,161.08 753.66,161.58 742.9,167.52 744.06,168.68 745.76,166.98 749.96,174.59 
			752.54,177.17 		"/>
		<polygon class="st3" points="741.89,169.43 745.97,176.84 739.71,173.38 738.37,175.8 739.19,174.98 740.67,177.67 742.16,180.37 
			739.47,178.88 737.32,177.7 737.05,178.19 731.11,188.96 734.76,186.94 733.93,186.48 735.14,185.27 736.34,184.07 737.19,185.6 
			738.93,184.64 737.15,181.42 740.96,183.52 741.87,183.01 752.64,177.07 751.48,175.91 749.77,177.62 745.57,170.01 
			742.99,167.43 		"/>
		<polygon class="st3" points="744.9,144.44 752.31,140.35 748.85,146.61 751.28,147.95 750.45,147.13 753.14,145.65 755.84,144.16 
			754.35,146.85 753.17,149 753.66,149.27 764.43,155.21 762.41,151.56 761.95,152.39 760.74,151.18 759.54,149.98 761.07,149.13 
			760.11,147.39 756.89,149.17 758.99,145.36 758.48,144.45 752.54,133.68 751.38,134.84 753.09,136.55 745.48,140.75 742.9,143.33 
					"/>
		<polygon class="st3" points="750.63,132.67 743.23,136.76 746.69,130.49 744.26,129.15 745.08,129.97 742.39,131.46 739.7,132.95 
			741.18,130.25 742.37,128.11 741.87,127.84 731.11,121.89 733.13,125.55 733.58,124.72 734.79,125.92 736,127.13 734.46,127.97 
			735.43,129.72 738.65,127.94 736.55,131.75 737.05,132.66 742.99,143.42 744.15,142.26 742.45,140.56 750.06,136.36 
			752.64,133.78 		"/>
	</g>
	<g class="st7">
		<polygon class="st3" points="236.99,19.03 226.26,15.93 235.34,13.31 234.32,9.79 234.32,11.33 230.42,10.2 226.52,9.08 
			230.42,7.95 233.53,7.05 233.32,6.34 228.82,-9.26 227.29,-3.96 228.5,-4.31 228.5,-2.06 228.5,0.19 226.28,-0.45 225.55,2.08 
			230.22,3.42 224.7,5.02 224.32,6.34 219.82,21.93 221.99,21.93 221.99,18.75 233.01,21.93 237.82,21.93 		"/>
		<polygon class="st3" points="220.69,-37.7 231.42,-34.6 222.34,-31.98 223.36,-28.47 223.36,-30 227.25,-28.87 231.15,-27.75 
			227.25,-26.62 224.15,-25.73 224.35,-25.01 228.86,-9.41 230.38,-14.71 229.18,-14.36 229.18,-16.61 229.18,-18.86 231.4,-18.22 
			232.13,-20.75 227.46,-22.09 232.98,-23.69 233.36,-25.01 237.86,-40.6 235.69,-40.6 235.69,-37.42 224.67,-40.6 219.85,-40.6 		
			"/>
		<polygon class="st3" points="200.48,-1.19 203.57,-11.91 206.19,-2.84 209.71,-3.85 208.17,-3.85 209.3,-7.75 210.43,-11.65 
			211.55,-7.75 212.45,-4.64 213.17,-4.85 228.76,-9.35 223.46,-10.88 223.81,-9.68 221.56,-9.68 219.31,-9.68 219.95,-11.9 
			217.43,-12.62 216.08,-7.96 214.49,-13.47 213.17,-13.85 197.57,-18.36 197.57,-16.19 200.75,-16.19 197.57,-5.17 197.57,-0.35 		
			"/>
		<polygon class="st3" points="257.2,-17.48 254.1,-6.76 251.48,-15.83 247.97,-14.82 249.5,-14.82 248.38,-10.92 247.25,-7.02 
			246.13,-10.92 245.23,-14.03 244.51,-13.82 228.92,-9.32 234.21,-7.79 233.86,-8.99 236.12,-8.99 238.37,-8.99 237.73,-6.77 
			240.25,-6.05 241.6,-10.71 243.19,-5.2 244.51,-4.82 260.1,-0.31 260.1,-2.48 256.92,-2.48 260.1,-13.5 260.1,-18.32 		"/>
		<polygon class="st3" points="241.75,-2.19 236.86,0.51 239.14,-3.63 237.54,-4.51 238.08,-3.97 236.31,-2.99 234.53,-2.01 
			235.51,-3.78 236.29,-5.2 235.96,-5.38 228.86,-9.3 230.19,-6.89 230.49,-7.44 231.29,-6.64 232.09,-5.85 231.08,-5.29 
			231.71,-4.14 233.84,-5.31 232.45,-2.8 232.78,-2.2 236.7,4.91 237.47,4.14 236.34,3.02 241.37,0.24 243.07,-1.46 		"/>
		<polygon class="st3" points="237.96,5.58 242.85,2.88 240.57,7.01 242.17,7.9 241.63,7.36 243.4,6.37 245.18,5.39 244.2,7.17 
			243.42,8.59 243.75,8.77 250.85,12.69 249.52,10.28 249.22,10.82 248.42,10.03 247.62,9.23 248.63,8.68 248,7.53 245.87,8.7 
			247.26,6.19 246.93,5.58 243.01,-1.52 242.24,-0.75 243.37,0.37 238.34,3.14 236.64,4.85 		"/>
		<polygon class="st3" points="221.47,3.58 218.77,-1.3 222.9,0.98 223.79,-0.62 223.25,-0.08 222.27,-1.86 221.28,-3.63 
			223.06,-2.65 224.48,-1.87 224.66,-2.2 228.58,-9.3 226.17,-7.97 226.71,-7.67 225.92,-6.87 225.12,-6.08 224.57,-7.09 
			223.42,-6.45 224.59,-4.32 222.08,-5.71 221.47,-5.38 214.37,-1.46 215.14,-0.69 216.26,-1.82 219.03,3.21 220.74,4.91 		"/>
		<polygon class="st3" points="213.7,-0.2 216.4,4.69 212.26,2.41 211.38,4.01 211.92,3.47 212.9,5.24 213.88,7.02 212.11,6.04 
			210.69,5.26 210.51,5.58 206.59,12.69 209,11.36 208.45,11.05 209.25,10.26 210.04,9.46 210.6,10.47 211.75,9.84 210.58,7.71 
			213.09,9.1 213.69,8.77 220.8,4.85 220.03,4.08 218.91,5.2 216.13,0.18 214.43,-1.52 		"/>
		<polygon class="st3" points="215.69,-16.69 220.58,-19.39 218.3,-15.26 219.9,-14.37 219.36,-14.92 221.13,-15.9 222.91,-16.88 
			221.93,-15.1 221.15,-13.68 221.47,-13.5 228.58,-9.58 227.25,-11.99 226.94,-11.45 226.15,-12.24 225.35,-13.04 226.36,-13.6 
			225.73,-14.75 223.6,-13.57 224.99,-16.09 224.66,-16.69 220.74,-23.79 219.97,-23.02 221.09,-21.9 216.07,-19.13 214.37,-17.43 
					"/>
		<polygon class="st3" points="219.47,-24.46 214.59,-21.76 216.87,-25.9 215.27,-26.78 215.81,-26.24 214.03,-25.26 212.26,-24.28 
			213.24,-26.05 214.02,-27.47 213.69,-27.65 206.59,-31.57 207.92,-29.16 208.22,-29.71 209.02,-28.91 209.81,-28.12 208.8,-27.56 
			209.44,-26.41 211.57,-27.58 210.18,-25.07 210.51,-24.47 214.43,-17.36 215.2,-18.13 214.07,-19.25 219.1,-22.03 220.8,-23.73 		
			"/>
		<polygon class="st3" points="235.97,-22.47 238.67,-17.58 234.54,-19.86 233.65,-18.26 234.19,-18.8 235.17,-17.03 236.15,-15.25 
			234.38,-16.23 232.96,-17.01 232.78,-16.69 228.86,-9.58 231.27,-10.91 230.72,-11.22 231.52,-12.01 232.32,-12.81 232.87,-11.8 
			234.02,-12.43 232.85,-14.56 235.36,-13.17 235.96,-13.5 243.07,-17.43 242.3,-18.19 241.18,-17.07 238.41,-22.09 236.7,-23.79 		
			"/>
		<polygon class="st3" points="243.74,-18.69 241.04,-23.57 245.17,-21.29 246.06,-22.89 245.52,-22.35 244.54,-24.13 243.56,-25.9 
			245.33,-24.92 246.75,-24.14 246.93,-24.47 250.85,-31.57 248.44,-30.24 248.99,-29.94 248.19,-29.14 247.39,-28.35 
			246.84,-29.36 245.69,-28.72 246.86,-26.6 244.35,-27.98 243.75,-27.65 236.64,-23.73 237.41,-22.96 238.53,-24.09 241.3,-19.07 
			243.01,-17.36 		"/>
	</g>
	<g class="st7">
		<polygon class="st3" points="672.99,122.03 662.26,118.93 671.34,116.31 670.32,112.79 670.32,114.33 666.42,113.2 662.52,112.08 
			666.42,110.95 669.53,110.05 669.32,109.34 664.82,93.74 663.29,99.04 664.5,98.69 664.5,100.94 664.5,103.19 662.28,102.55 
			661.55,105.08 666.22,106.42 660.7,108.02 660.32,109.34 655.82,124.93 657.99,124.93 657.99,121.75 669.01,124.93 673.82,124.93 
					"/>
		<polygon class="st3" points="656.69,65.3 667.42,68.4 658.34,71.02 659.36,74.53 659.36,73 663.25,74.13 667.15,75.25 
			663.25,76.38 660.15,77.27 660.35,77.99 664.86,93.59 666.38,88.29 665.18,88.64 665.18,86.39 665.18,84.14 667.4,84.78 
			668.13,82.25 663.46,80.91 668.98,79.31 669.36,77.99 673.86,62.4 671.69,62.4 671.69,65.58 660.67,62.4 655.85,62.4 		"/>
		<polygon class="st3" points="636.48,101.81 639.57,91.09 642.19,100.16 645.71,99.15 644.17,99.15 645.3,95.25 646.43,91.35 
			647.55,95.25 648.45,98.36 649.17,98.15 664.76,93.65 659.46,92.12 659.81,93.32 657.56,93.32 655.31,93.32 655.95,91.1 
			653.43,90.38 652.08,95.04 650.49,89.53 649.17,89.15 633.57,84.64 633.57,86.81 636.75,86.81 633.57,97.83 633.57,102.65 		"/>
		<polygon class="st3" points="693.2,85.52 690.1,96.24 687.48,87.17 683.97,88.18 685.5,88.18 684.38,92.08 683.25,95.98 
			682.13,92.08 681.23,88.97 680.51,89.18 664.92,93.68 670.21,95.21 669.86,94.01 672.12,94.01 674.37,94.01 673.73,96.23 
			676.25,96.95 677.6,92.29 679.19,97.8 680.51,98.18 696.1,102.69 696.1,100.52 692.92,100.52 696.1,89.5 696.1,84.68 		"/>
		<polygon class="st3" points="677.75,100.81 672.86,103.51 675.14,99.37 673.54,98.49 674.08,99.03 672.31,100.01 670.53,100.99 
			671.51,99.22 672.29,97.8 671.96,97.62 664.86,93.7 666.19,96.11 666.49,95.56 667.29,96.36 668.09,97.15 667.08,97.71 
			667.71,98.86 669.84,97.69 668.45,100.2 668.78,100.8 672.7,107.91 673.47,107.14 672.34,106.02 677.37,103.24 679.07,101.54 		
			"/>
		<polygon class="st3" points="673.96,108.58 678.85,105.88 676.57,110.01 678.17,110.9 677.63,110.36 679.4,109.37 681.18,108.39 
			680.2,110.17 679.42,111.59 679.75,111.77 686.85,115.69 685.52,113.28 685.22,113.82 684.42,113.03 683.62,112.23 684.63,111.68 
			684,110.53 681.87,111.7 683.26,109.19 682.93,108.58 679.01,101.48 678.24,102.25 679.37,103.37 674.34,106.14 672.64,107.85 		
			"/>
		<polygon class="st3" points="657.47,106.58 654.77,101.7 658.9,103.98 659.79,102.38 659.25,102.92 658.27,101.14 657.28,99.37 
			659.06,100.35 660.48,101.13 660.66,100.8 664.58,93.7 662.17,95.03 662.71,95.33 661.92,96.13 661.12,96.92 660.57,95.91 
			659.42,96.55 660.59,98.68 658.08,97.29 657.47,97.62 650.37,101.54 651.14,102.31 652.26,101.18 655.03,106.21 656.74,107.91 		
			"/>
		<polygon class="st3" points="649.7,102.8 652.4,107.69 648.26,105.41 647.38,107.01 647.92,106.47 648.9,108.24 649.88,110.02 
			648.11,109.04 646.69,108.26 646.51,108.58 642.59,115.69 645,114.36 644.45,114.05 645.25,113.26 646.04,112.46 646.6,113.47 
			647.75,112.84 646.58,110.71 649.09,112.1 649.69,111.77 656.8,107.85 656.03,107.08 654.91,108.2 652.13,103.18 650.43,101.48 		
			"/>
		<polygon class="st3" points="651.69,86.31 656.58,83.61 654.3,87.74 655.9,88.63 655.36,88.08 657.13,87.1 658.91,86.12 
			657.93,87.9 657.15,89.32 657.47,89.5 664.58,93.42 663.25,91.01 662.94,91.55 662.15,90.76 661.35,89.96 662.36,89.4 
			661.73,88.25 659.6,89.43 660.99,86.91 660.66,86.31 656.74,79.21 655.97,79.98 657.09,81.1 652.07,83.87 650.37,85.57 		"/>
		<polygon class="st3" points="655.47,78.54 650.59,81.24 652.87,77.1 651.27,76.22 651.81,76.76 650.03,77.74 648.26,78.72 
			649.24,76.95 650.02,75.53 649.69,75.35 642.59,71.43 643.92,73.84 644.22,73.29 645.02,74.09 645.81,74.88 644.8,75.44 
			645.44,76.59 647.57,75.42 646.18,77.93 646.51,78.53 650.43,85.64 651.2,84.87 650.07,83.75 655.1,80.97 656.8,79.27 		"/>
		<polygon class="st3" points="671.97,80.53 674.67,85.42 670.54,83.14 669.65,84.74 670.19,84.2 671.17,85.97 672.15,87.75 
			670.38,86.77 668.96,85.99 668.78,86.31 664.86,93.42 667.27,92.09 666.72,91.78 667.52,90.99 668.32,90.19 668.87,91.2 
			670.02,90.57 668.85,88.44 671.36,89.83 671.96,89.5 679.07,85.57 678.3,84.81 677.18,85.93 674.41,80.91 672.7,79.21 		"/>
		<polygon class="st3" points="679.74,84.31 677.04,79.43 681.17,81.71 682.06,80.11 681.52,80.65 680.54,78.87 679.56,77.1 
			681.33,78.08 682.75,78.86 682.93,78.53 686.85,71.43 684.44,72.76 684.99,73.06 684.19,73.86 683.39,74.65 682.84,73.64 
			681.69,74.28 682.86,76.4 680.35,75.02 679.75,75.35 672.64,79.27 673.41,80.04 674.53,78.91 677.3,83.93 679.01,85.64 		"/>
	</g>
	<g class="st7">
		<polygon class="st3" points="411.64,107.73 401.87,113.13 406.43,104.86 403.23,103.09 404.31,104.17 400.76,106.14 397.21,108.1 
			399.17,104.54 400.73,101.71 400.08,101.35 385.87,93.51 388.53,98.33 389.14,97.24 390.73,98.83 392.32,100.42 390.3,101.53 
			391.57,103.83 395.82,101.49 393.05,106.51 393.71,107.72 401.56,121.93 403.09,120.39 400.84,118.14 410.88,112.6 414.29,109.19 
					"/>
		<polygon class="st3" points="360.01,79.15 369.78,73.75 365.22,82.02 368.42,83.79 367.34,82.7 370.89,80.74 374.44,78.78 
			372.48,82.34 370.92,85.17 371.57,85.53 385.78,93.37 383.12,88.55 382.51,89.64 380.92,88.05 379.33,86.46 381.35,85.34 
			380.08,83.04 375.83,85.39 378.6,80.37 377.94,79.16 370.1,64.95 368.56,66.49 370.81,68.74 360.77,74.28 357.36,77.69 		"/>
		<polygon class="st3" points="371.53,119.25 366.14,109.48 374.41,114.05 376.18,110.84 375.09,111.93 373.13,108.37 
			371.17,104.82 374.72,106.78 377.55,108.35 377.91,107.69 385.76,93.48 380.93,96.15 382.03,96.75 380.44,98.34 378.85,99.93 
			377.73,97.91 375.43,99.18 377.78,103.44 372.75,100.66 371.55,101.33 357.34,109.17 358.87,110.7 361.12,108.45 366.67,118.5 
			370.07,121.9 		"/>
		<polygon class="st3" points="400.12,67.62 405.51,77.4 397.24,72.83 395.48,76.04 396.56,74.95 398.52,78.5 400.48,82.06 
			396.93,80.1 394.1,78.53 393.74,79.19 385.89,93.4 390.72,90.73 389.62,90.13 391.21,88.54 392.81,86.94 393.92,88.97 
			396.22,87.7 393.87,83.44 398.9,86.22 400.1,85.55 414.31,77.71 412.78,76.18 410.53,78.43 404.99,68.38 401.58,64.98 		"/>
		<polygon class="st3" points="400.01,89.37 398.46,94.73 397.15,90.19 395.39,90.7 396.16,90.7 395.59,92.65 395.03,94.6 
			394.47,92.65 394.02,91.09 393.66,91.2 385.86,93.45 388.51,94.21 388.34,93.61 389.46,93.61 390.59,93.61 390.27,94.72 
			391.53,95.08 392.21,92.75 393,95.51 393.66,95.7 401.46,97.95 401.46,96.87 399.87,96.87 401.46,91.35 401.46,88.95 		"/>
		<polygon class="st3" points="402.82,97.53 404.37,92.17 405.68,96.71 407.44,96.2 406.67,96.2 407.23,94.25 407.8,92.3 
			408.36,94.25 408.81,95.8 409.17,95.7 416.96,93.45 414.32,92.68 414.49,93.29 413.36,93.29 412.24,93.29 412.56,92.18 
			411.3,91.81 410.62,94.15 409.83,91.39 409.17,91.2 401.37,88.95 401.37,90.03 402.96,90.03 401.37,95.54 401.37,97.95 		"/>
		<polygon class="st3" points="389.75,107.79 384.39,106.24 388.92,104.93 388.42,103.17 388.42,103.94 386.47,103.38 
			384.52,102.81 386.47,102.25 388.02,101.8 387.92,101.44 385.67,93.65 384.9,96.29 385.5,96.12 385.5,97.25 385.5,98.37 
			384.4,98.05 384.03,99.31 386.36,99.99 383.61,100.78 383.42,101.44 381.17,109.24 382.25,109.24 382.25,107.65 387.76,109.24 
			390.17,109.24 		"/>
		<polygon class="st3" points="381.58,110.6 386.95,112.15 382.41,113.46 382.92,115.22 382.92,114.45 384.87,115.02 386.82,115.58 
			384.87,116.14 383.31,116.59 383.42,116.95 385.67,124.75 386.43,122.1 385.83,122.27 385.83,121.15 385.83,120.02 386.94,120.34 
			387.3,119.08 384.97,118.41 387.73,117.61 387.92,116.95 390.17,109.15 389.08,109.15 389.08,110.74 383.57,109.15 381.17,109.15 
					"/>
		<polygon class="st3" points="371.33,97.53 372.87,92.17 374.18,96.71 375.94,96.2 375.18,96.2 375.74,94.25 376.3,92.3 
			376.86,94.25 377.31,95.8 377.67,95.7 385.47,93.45 382.82,92.68 382.99,93.29 381.87,93.29 380.74,93.29 381.06,92.18 
			379.8,91.81 379.13,94.15 378.33,91.39 377.67,91.2 369.87,88.95 369.87,90.03 371.47,90.03 369.87,95.54 369.87,97.95 		"/>
		<polygon class="st3" points="368.51,89.37 366.96,94.73 365.65,90.19 363.89,90.7 364.66,90.7 364.1,92.65 363.54,94.6 
			362.97,92.65 362.53,91.09 362.17,91.2 354.37,93.45 357.02,94.21 356.84,93.61 357.97,93.61 359.09,93.61 358.77,94.72 
			360.04,95.08 360.71,92.75 361.51,95.51 362.17,95.7 369.96,97.95 369.96,96.87 368.37,96.87 369.96,91.35 369.96,88.95 		"/>
		<polygon class="st3" points="381.58,79.11 386.95,80.66 382.41,81.97 382.92,83.72 382.92,82.96 384.87,83.52 386.82,84.08 
			384.87,84.65 383.31,85.09 383.42,85.45 385.67,93.25 386.43,90.6 385.83,90.78 385.83,89.65 385.83,88.52 386.94,88.85 
			387.3,87.58 384.97,86.91 387.73,86.11 387.92,85.45 390.17,77.66 389.08,77.66 389.08,79.25 383.57,77.66 381.17,77.66 		"/>
		<polygon class="st3" points="389.75,76.29 384.39,74.74 388.92,73.43 388.42,71.68 388.42,72.44 386.47,71.88 384.52,71.32 
			386.47,70.76 388.02,70.31 387.92,69.95 385.67,62.15 384.9,64.8 385.5,64.62 385.5,65.75 385.5,66.88 384.4,66.56 384.03,67.82 
			386.36,68.49 383.61,69.29 383.42,69.95 381.17,77.74 382.25,77.74 382.25,76.15 387.76,77.74 390.17,77.74 		"/>
	</g>
</g>
</svg>
