<?xml version="1.0" encoding="utf-8"?>
<!-- Generator: Adobe Illustrator 23.0.3, SVG Export Plug-In . SVG Version: 6.00 Build 0)  -->
<svg version="1.1" xmlns="http://www.w3.org/2000/svg" xmlns:xlink="http://www.w3.org/1999/xlink" x="0px" y="0px"
	 viewBox="0 0 750 750" style="enable-background:new 0 0 750 750;" xml:space="preserve">
<style type="text/css">
	.st0{display:none;}
	.st1{display:inline;fill:#314768;}
	.st2{fill:#FFFFFF;}
	.st3{fill-rule:evenodd;clip-rule:evenodd;fill:#FFFFFF;}
</style>
<g id="Layer_1" class="st0">
	<rect x="1" class="st1" width="750" height="750"/>
</g>
<g id="family">
</g>
<g id="stars">
	<polygon class="st2" points="98.1,192.35 129.37,123.31 165.14,190.12 240.46,198.53 187.97,253.2 203.25,327.43 135.04,294.41 
		69.16,331.88 79.49,256.8 23.5,205.73 	"/>
	<polygon class="st2" points="348.1,192.35 379.37,123.31 415.14,190.12 490.46,198.53 437.97,253.2 453.25,327.43 385.04,294.41 
		319.16,331.88 329.49,256.8 273.5,205.73 	"/>
	<polygon class="st2" points="598.1,192.35 629.37,123.31 665.14,190.12 740.46,198.53 687.97,253.2 703.25,327.43 635.04,294.41 
		569.16,331.88 579.49,256.8 523.5,205.73 	"/>
	<polygon class="st2" points="208.1,462.35 239.37,393.31 275.14,460.12 350.46,468.53 297.97,523.2 313.25,597.43 245.04,564.41 
		179.16,601.88 189.49,526.8 133.5,475.73 	"/>
	<polygon class="st2" points="458.1,462.35 489.37,393.31 525.14,460.12 600.46,468.53 547.97,523.2 563.25,597.43 495.04,564.41 
		429.16,601.88 439.49,526.8 383.5,475.73 	"/>
</g>
<g id="wheelchair-symbol">
</g>
</svg>
