<?xml version="1.0" encoding="utf-8"?>
<!-- Generator: Adobe Illustrator 23.0.3, SVG Export Plug-In . SVG Version: 6.00 Build 0)  -->
<svg version="1.1" xmlns="http://www.w3.org/2000/svg" xmlns:xlink="http://www.w3.org/1999/xlink" x="0px" y="0px"
	 viewBox="0 0 750 750" style="enable-background:new 0 0 750 750;" xml:space="preserve">
<style type="text/css">
	.st0{fill:#4D94FF;}
	.st1{fill:#FFFFFF;}
</style>
<g id="Layer_2">
	<rect class="st0" width="750" height="750"/>
</g>
<g id="Layer_1">
	<g>
		<path class="st0" d="M750.22,562.05c0,103.58-83.97,187.55-187.55,187.55H187.55C83.97,749.61,0,665.64,0,562.05V186.95
			C0,83.36,83.97-0.61,187.55-0.61h375.11c103.58,0,187.55,83.97,187.55,187.55V562.05z"/>
		<g>
			<g id="surface51727">
				<path class="st1" d="M650.93,220.88c-20.3,8.98-42.1,14.97-65.1,17.79c23.36-13.9,41.38-36.05,49.83-62.23
					c-21.92,12.88-46.17,22.28-71.93,27.25c-20.6-21.86-50.01-35.39-82.59-35.39c-62.53,0-113.25,50.24-113.25,112.23
					c0,8.74,1.01,17.3,2.93,25.58c-94.09-4.67-177.57-49.41-233.39-117.33c-9.82,16.59-15.33,35.99-15.33,56.53
					c0,38.93,19.94,73.25,50.36,93.43c-18.56-0.54-36.05-5.75-51.32-14.02c0,0.36,0,0.84,0,1.32c0,54.44,39.05,99.77,90.79,110.13
					c-9.46,2.58-19.47,4.01-29.77,4.01c-7.3,0-14.43-0.84-21.32-2.1c14.37,44.5,56.17,77.02,105.76,77.98
					c-38.81,30.06-87.62,48.09-140.68,48.09c-9.17,0-18.15-0.53-27.01-1.62c50.19,31.75,109.72,50.37,173.62,50.37
					c208.3,0,322.27-171.05,322.27-319.45c0-4.85-0.18-9.7-0.42-14.44C616.61,263.29,635.77,243.52,650.93,220.88"/>
			</g>
		</g>
	</g>
</g>
</svg>
