<?xml version="1.0" encoding="utf-8"?>
<!-- Generator: Adobe Illustrator 23.0.3, SVG Export Plug-In . SVG Version: 6.00 Build 0)  -->
<svg version="1.1" xmlns="http://www.w3.org/2000/svg" xmlns:xlink="http://www.w3.org/1999/xlink" x="0px" y="0px"
	 viewBox="0 0 750 750" style="enable-background:new 0 0 750 750;" xml:space="preserve">
<style type="text/css">
	.st0{display:none;}
	.st1{display:inline;fill:#314768;}
	.st2{fill:#FFFFFF;}
	.st3{fill-rule:evenodd;clip-rule:evenodd;fill:#FFFFFF;}
</style>
<g id="Layer_1" class="st0">
	<rect x="1" class="st1" width="750" height="750"/>
</g>
<g id="family">
</g>
<g id="stars">
</g>
<g id="wheelchair-symbol">
	<g>
		<path class="st3" d="M521.88,33.09c14.17-9.96,33.2-15.63,53.57-11.98c14,2.51,25.14,8.58,34.19,16.92
			c13.51,12.45,22.43,29.96,22.91,51.1c0.93,41.44-31.68,74.36-76.12,71.54c-21.19-1.34-36.49-10.61-48.64-25.02
			c-8.17-9.7-13.31-19.31-15.86-34.89C487.03,70.83,504.01,45.66,521.88,33.09z"/>
		<path class="st3" d="M165.22,358.39c27.39-25.94,60.22-45.74,103.26-54.63c2.87-0.59,6.31-0.35,8.81-1.41
			c2.89-1.22,7.69-8.62,9.52-10.57c33.09-35.54,63.73-72.4,95.86-108.55c-19.1-11.92-39.09-22.94-58.86-34.19
			c-23.16,19.32-44.7,40.22-68.02,60.62c-10.59,9.26-28.4,19.51-47.58,11.63c-16.02-6.58-28.19-22.55-26.78-44.05
			c1.18-17.97,14.98-27.6,26.43-38.06c23.45-21.44,47.58-43.43,71.9-64.5c8.34-7.22,16.12-15.73,28.9-18.68
			c1.5-0.35,3.89,0.22,4.93-1.76c0.54,1.72,5.5,0.39,9.16,0.71c10.83,0.94,20.1,7.65,28.9,12.69
			c43.66,25.02,88.03,50.7,132.16,75.77c8.56,4.87,17.36,10.06,26.08,15.51c8.75,5.48,18.69,9.3,26.43,15.15
			c15.53,11.74,22.63,37.96,13.74,58.15c-5.48,12.47-16.51,22.09-25.38,32.42c-20.4,23.8-42.47,48.39-63.44,72.6
			c44.05-1.77,93.77-5.07,136.39-8.46c6.36,0.92,13.7-0.44,21.5,1.06c20.89,4.01,35.86,21.87,33.48,47.93
			c-5.74,62.95-10.38,130.15-15.51,196.66c-1.4,18.25-2.23,31.47-11.63,42.29c-9.8,11.28-29.29,19.45-47.23,11.98
			c-14.85-6.19-27.45-19.76-27.14-39.83c0.15-9.63,1.82-20.26,2.47-30.66c2.86-45.85,8.02-97.24,10.93-141.68
			c-16.62,0.03-38.1,2.32-56.04,2.82c16.64,34.2,27.04,84.95,17.97,134.98c-8.01,44.21-29.01,81.43-55.33,107.49
			c-18.59-17.71-36.49-36.11-54.98-53.92c14.18-15.49,26.8-36.4,32.42-59.91c5.74-23.99,5.23-48.79-1.76-72.6
			c-19.58-57.69-64.43-98.04-137.45-99.38c-17.66-0.33-36.57,5.23-50.75,11.63c-15.06,6.8-27.31,14.81-39.12,24.67
			C201.1,394.64,183.74,375.94,165.22,358.39z"/>
		<path class="st3" d="M391.13,629.77c14.69,12.79,28.35,27.29,42.29,41.23c4.59,4.59,10.03,8.38,13.39,13.75
			c-37.27,28.8-88.66,48.69-151.2,44.76c-22.86-1.44-43.22-7.66-61.68-14.1c-5.65-1.97-11.1-4.94-16.21-7.4
			c-11.35-5.47-22.56-11.37-32.07-18.33c-9.75-7.14-18.22-15.44-26.79-23.61c-31.8-30.35-57.64-79.88-61.32-136.04
			c-1.79-27.26,1.94-58.45,10.22-82.82c8.45-24.85,20.51-45.12,34.54-64.5c14.15,12.4,27.19,26.42,40.88,39.83
			c4.68,4.58,9.7,9.08,13.74,14.1c1.85,1.81-1.59,5.05-2.82,7.05c-10.35,16.81-18,38.25-19.74,63.44
			c-2.03,29.41,6.23,56.67,18.33,76.83c11.41,19.01,27.24,36.18,47.23,48.64c19.83,12.36,45.26,21.18,72.95,21.15
			C345.23,653.69,370.28,643.15,391.13,629.77z"/>
	</g>
</g>
</svg>
